<?xml version="1.0" encoding="utf-8"?>
<!-- Generator: Adobe Illustrator 24.0.0, SVG Export Plug-In . SVG Version: 6.00 Build 0)  -->
<svg version="1.1" id="Layer_1" xmlns="http://www.w3.org/2000/svg" xmlns:xlink="http://www.w3.org/1999/xlink" x="0px" y="0px"
	 viewBox="0 0 351.8 312.6" style="enable-background:new 0 0 351.8 312.6;" xml:space="preserve">
<style type="text/css">
	.st0{fill:#F66400;}
	.st1{fill:#F76908;}
	.st2{fill:#F76908;enable-background:new    ;}
	.st3{fill:#AA8272;}
	.st4{fill:#F7B799;}
	.st5{fill:#8C695B;}
	.st6{fill:#FFFFFF;}
	.st7{fill:#0D263B;}
	.st8{fill:#091A29;}
	.st9{fill:#260D08;}
	.st10{fill:#12314D;}
	.st11{opacity:0.3;}
	.st12{fill:#634C44;}
	.st13{fill:url(#SVGID_1_);}
	.st14{fill:#DE3139;}
	.st15{fill:#C72A31;}
	.st16{opacity:0.8;}
	.st17{opacity:0.5;}
	.st18{fill:#F66400;enable-background:new    ;}
	.st19{opacity:0.19;fill:url(#SVGID_2_);enable-background:new    ;}
	.st20{opacity:0.19;fill:#F66400;enable-background:new    ;}
</style>
<g>
	<g>
		<polygon class="st0" points="299.6,90.3 283.7,100.6 283.7,106.8 299.6,96.3 315.5,106.8 315.5,100.6 		"/>
		<polygon class="st0" points="299.6,98.6 283.7,108.9 283.7,115.1 299.6,104.6 315.5,115.1 315.5,108.9 		"/>
		<polygon class="st0" points="299.6,106.8 283.7,117.1 283.7,123.3 299.6,112.8 315.5,123.3 315.5,117.1 		"/>
	</g>
	<ellipse class="st1" cx="189.1" cy="288.4" rx="127" ry="16.5"/>
	<g>
		<g>
			<path class="st1" d="M99.2,251.2H98v-1h1.2c0.9,0,1.9,0,2.8,0v1C101,251.2,100.1,251.2,99.2,251.2z M94,251.2
				c-1.4,0-2.7-0.1-4-0.1l0.1-1c1.3,0.1,2.7,0.1,4,0.1L94,251.2z M106,251.1v-1c1.3,0,2.6-0.1,4-0.2l0.1,1
				C108.7,251,107.3,251.1,106,251.1z M85.9,250.8c-1.4-0.1-2.7-0.2-4-0.3l0.1-1c1.3,0.1,2.6,0.2,4,0.3L85.9,250.8z M114,250.7
				l-0.1-1c1.3-0.1,2.6-0.2,4-0.3l0.1,1C116.7,250.5,115.3,250.6,114,250.7z M122,250l-0.1-1c1.3-0.1,2.6-0.3,4-0.5l0.1,1
				C124.7,249.7,123.3,249.9,122,250z M77.9,250c-1.3-0.2-2.7-0.3-4-0.5l0.1-1c1.3,0.2,2.6,0.4,3.9,0.5V250z M130,249.1l-0.1-1
				c1.3-0.2,2.6-0.4,3.9-0.6l0.1,1C132.6,248.7,131.3,248.9,130,249.1z M70,248.8c-1.3-0.2-2.6-0.5-3.9-0.8l0.2-1
				c1.3,0.3,2.6,0.5,3.9,0.8L70,248.8z M137.9,247.8l-0.2-1c1.3-0.2,2.6-0.5,3.9-0.7l0.2,1C140.5,247.4,139.2,247.6,137.9,247.8z
				 M62.1,247.2c-1.3-0.3-2.6-0.6-3.9-1l0.3-1c1.3,0.4,2.6,0.7,3.9,1L62.1,247.2z M145.8,246.4l-0.2-1c1.3-0.3,2.6-0.5,3.9-0.8
				l0.2,1C148.4,245.9,147.1,246.1,145.8,246.4z M54.4,245c-1.3-0.4-2.6-0.8-3.8-1.3l0.3-0.9c1.2,0.4,2.5,0.9,3.8,1.3L54.4,245z
				 M153.6,244.7l-0.2-1c1.3-0.3,2.6-0.6,3.9-0.9l0.2,1C156.2,244.1,154.9,244.4,153.6,244.7z M161.4,242.9l-0.3-1
				c1.3-0.3,2.6-0.7,3.9-1l0.3,1C164,242.2,162.7,242.5,161.4,242.9z M46.8,242.3c-1.2-0.5-2.5-1-3.7-1.6l0.4-0.9
				c1.2,0.5,2.4,1.1,3.7,1.6L46.8,242.3z M169.2,240.8l-0.3-1c1.3-0.4,2.6-0.7,3.8-1.1l0.3,1C171.7,240.1,170.5,240.4,169.2,240.8z
				 M39.5,239c-1.2-0.6-2.4-1.3-3.5-1.9l0.5-0.9c1.1,0.6,2.3,1.3,3.5,1.9L39.5,239z M176.9,238.5l-0.3-1c1.3-0.4,2.5-0.8,3.8-1.2
				l0.3,1C179.4,237.7,178.1,238.1,176.9,238.5z M184.5,236.1l-0.3-1c1.3-0.4,2.5-0.9,3.8-1.3l0.3,1
				C187,235.2,185.7,235.6,184.5,236.1z M32.5,235c-1.1-0.7-2.3-1.5-3.3-2.3l0.6-0.8c1.1,0.8,2.2,1.5,3.3,2.2L32.5,235z
				 M192.1,233.4l-0.3-0.9c1.3-0.5,2.5-0.9,3.8-1.4l0.4,0.9C194.6,232.5,193.3,233,192.1,233.4z M199.6,230.6l-0.4-0.9
				c1.2-0.5,2.5-1,3.7-1.5l0.4,0.9C202.1,229.7,200.8,230.1,199.6,230.6z M26,230.3c-1-0.9-2.1-1.7-3.1-2.6l0.7-0.7
				c1,0.9,2,1.8,3,2.6L26,230.3z M207,227.6l-0.4-0.9c1.2-0.5,2.5-1,3.7-1.5l0.4,0.9C209.5,226.6,208.2,227.1,207,227.6z M20,224.9
				c-0.9-1-1.8-2-2.7-3l0.8-0.6c0.8,1,1.8,2,2.7,2.9L20,224.9z M214.4,224.5l-0.4-0.9c1.2-0.5,2.4-1.1,3.6-1.6l0.4,0.9
				C216.8,223.4,215.6,224,214.4,224.5z M221.7,221.2l-0.4-0.9c1.2-0.6,2.4-1.1,3.6-1.7l0.4,0.9
				C224.1,220.1,222.9,220.7,221.7,221.2z M14.8,218.7c-0.8-1.1-1.6-2.2-2.3-3.3l0.8-0.5c0.7,1.1,1.5,2.2,2.3,3.3L14.8,218.7z
				 M228.9,217.8l-0.4-0.9c1.2-0.6,2.4-1.2,3.6-1.8l0.5,0.9C231.3,216.6,230.1,217.2,228.9,217.8z M236.1,214.2l-0.5-0.9
				c1.2-0.6,2.4-1.2,3.5-1.9l0.5,0.9C238.5,212.9,237.3,213.6,236.1,214.2z M10.5,211.9l-0.4-0.7c-0.5-1-1-1.9-1.5-2.9l0.9-0.4
				c0.5,1,0.9,1.9,1.4,2.9l0.4,0.7L10.5,211.9z M243.2,210.4l-0.5-0.9c1.2-0.6,2.3-1.3,3.5-1.9l0.5,0.9
				C245.5,209.1,244.4,209.8,243.2,210.4z M250.2,206.5l-0.5-0.9c1.2-0.7,2.3-1.3,3.5-2l0.5,0.9
				C252.5,205.2,251.3,205.9,250.2,206.5z M7.1,204.6c-0.5-1.3-0.9-2.5-1.3-3.8l1-0.3c0.4,1.3,0.8,2.5,1.3,3.8L7.1,204.6z
				 M257.1,202.5l-0.5-0.9c1.1-0.7,2.3-1.4,3.4-2.1l0.5,0.9C259.4,201.1,258.2,201.8,257.1,202.5z M263.9,198.3l-0.5-0.9
				c1.1-0.7,2.3-1.4,3.4-2.1l0.5,0.8C266.2,196.9,265.1,197.6,263.9,198.3z M4.7,196.9c-0.3-1.3-0.6-2.6-0.8-4l1-0.2
				c0.2,1.3,0.5,2.6,0.8,3.9L4.7,196.9z M270.7,193.9l-0.5-0.8c1.1-0.7,2.2-1.5,3.3-2.2l0.6,0.8
				C272.9,192.5,271.8,193.2,270.7,193.9z M277.3,189.5l-0.6-0.8c1.1-0.8,2.2-1.5,3.3-2.3l0.6,0.8
				C279.5,187.9,278.4,188.7,277.3,189.5z M3.4,189c-0.1-1.3-0.3-2.7-0.3-4h1c0.1,1.3,0.2,2.7,0.3,4H3.4z M283.9,184.8l-0.6-0.8
				c1.1-0.8,2.2-1.6,3.2-2.4l0.6,0.8C286,183.3,285,184,283.9,184.8z M4,180.9H3c0-1.3,0-2.7,0.1-4l1,0.1C4,178.3,4,179.6,4,180.9z
				 M290.3,180.1l-0.6-0.8c1.1-0.8,2.1-1.6,3.2-2.4l0.6,0.8C292.4,178.4,291.4,179.2,290.3,180.1z M4.4,173l-1-0.1
				c0.1-1.3,0.3-2.7,0.5-4l1,0.1C4.8,170.4,4.6,171.7,4.4,173z M5.7,165.1l-1-0.2c0.3-1.3,0.5-2.6,0.9-3.9l1,0.2
				C6.2,162.5,5.9,163.8,5.7,165.1z M7.5,157.4l-1-0.3c0.4-1.3,0.8-2.6,1.2-3.9l1,0.3C8.3,154.9,7.9,156.1,7.5,157.4z M320.6,153.9
				l-0.7-0.7c1-0.9,1.9-1.9,2.8-2.8l0.7,0.7C322.5,152,321.6,152.9,320.6,153.9z M10,149.8l-0.9-0.3c0.5-1.3,0.9-2.5,1.4-3.8
				l0.9,0.4C10.9,147.3,10.4,148.6,10,149.8z M326.3,148.2l-0.7-0.7c0.9-1,1.8-1.9,2.7-2.9l0.7,0.7
				C328.1,146.2,327.2,147.2,326.3,148.2z M374.2,49.9c0-1.3-0.1-2.7-0.2-4l1-0.1c0.1,1.3,0.2,2.7,0.2,4L374.2,49.9z"/>
		</g>
	</g>
	<g>
		<path class="st2" d="M277.7,251.6c-1,0-2.1,0-3.1,0v-1c1,0,2.1,0,3.1,0h0.9v1H277.7z M282.5,251.6v-1c1.3,0,2.7-0.1,4-0.1v1
			C285.2,251.5,283.9,251.5,282.5,251.6z M270.5,251.5c-1.3,0-2.7-0.1-4-0.2v-1c1.3,0.1,2.7,0.1,4,0.2V251.5z M290.5,251.2l-0.1-1
			c1.3-0.1,2.7-0.2,4-0.3l0.1,1C293.2,251,291.9,251.1,290.5,251.2z M262.5,251.1c-1.3-0.1-2.6-0.2-4-0.3l0.1-1
			c1.3,0.1,2.7,0.2,4,0.3L262.5,251.1z M298.5,250.5l-0.1-1c1.3-0.1,2.6-0.3,4-0.5l0.1,1C301.2,250.2,299.8,250.3,298.5,250.5z
			 M254.6,250.4c-1.3-0.1-2.6-0.3-4-0.4l0.1-1c1.3,0.2,2.6,0.3,4,0.4L254.6,250.4z M246.6,249.5c-1.3-0.2-2.6-0.4-4-0.5l0.1-1
			c1.3,0.2,2.6,0.4,4,0.5L246.6,249.5z M306.4,249.4l-0.2-1c1.3-0.2,2.6-0.5,3.9-0.7l0.2,1C309.1,248.9,307.8,249.2,306.4,249.4z
			 M238.7,248.3c-1.3-0.2-2.6-0.4-4-0.7l0.2-1c1.3,0.2,2.6,0.5,3.9,0.7L238.7,248.3z M314.3,247.8l-0.2-1c1.3-0.3,2.6-0.6,3.9-0.9
			l0.3,1C316.9,247.2,315.6,247.6,314.3,247.8z M230.8,246.9c-1.3-0.3-2.6-0.5-3.9-0.8l0.2-1c1.3,0.3,2.6,0.5,3.9,0.8L230.8,246.9z
			 M322.1,245.8l-0.3-1c1.3-0.4,2.6-0.8,3.8-1.2l0.3,1C324.7,245,323.4,245.5,322.1,245.8z M223,245.4c-1.3-0.3-2.6-0.6-3.9-0.9
			l0.2-1c1.3,0.3,2.6,0.6,3.9,0.9L223,245.4z M215.2,243.6c-1.3-0.3-2.6-0.6-3.9-1l0.3-1c1.3,0.3,2.6,0.6,3.9,1L215.2,243.6z
			 M329.7,243.3l-0.4-0.9c1.2-0.5,2.5-1,3.7-1.5l0.4,0.9C332.2,242.3,330.9,242.8,329.7,243.3z M207.4,241.6
			c-1.3-0.3-2.6-0.7-3.9-1.1l0.3-1c1.3,0.4,2.6,0.7,3.9,1.1L207.4,241.6z M199.7,239.4c-1.3-0.4-2.6-0.8-3.8-1.1l0.3-1
			c1.3,0.4,2.6,0.8,3.8,1.1L199.7,239.4z M192.1,237.1c-1.3-0.4-2.5-0.8-3.8-1.2l0.3-1c1.3,0.4,2.5,0.8,3.8,1.2L192.1,237.1z
			 M184.5,234.6c-1.3-0.4-2.5-0.9-3.8-1.3l0.3-0.9c1.3,0.5,2.5,0.9,3.8,1.3L184.5,234.6z M177,231.9c-1.3-0.5-2.5-0.9-3.8-1.4
			l0.4-0.9c1.3,0.5,2.5,0.9,3.7,1.4L177,231.9z M169.5,229.1c-1.2-0.5-2.5-1-3.7-1.5l0.4-0.9c1.2,0.5,2.5,1,3.7,1.5L169.5,229.1z
			 M162.1,226.1c-1.2-0.5-2.5-1-3.7-1.5l0.4-0.9c1.2,0.5,2.4,1,3.7,1.5L162.1,226.1z M154.7,222.9c-1.2-0.5-2.4-1.1-3.6-1.6l0.4-0.9
			c1.2,0.5,2.4,1.1,3.6,1.6L154.7,222.9z M147.4,219.7c-1.2-0.6-2.4-1.1-3.6-1.7l0.4-0.9c1.2,0.6,2.4,1.1,3.6,1.7L147.4,219.7z
			 M140.2,216.2c-1.2-0.6-2.4-1.2-3.6-1.8l0.4-0.9c1.2,0.6,2.4,1.2,3.6,1.8L140.2,216.2z M133,212.7c-1.2-0.6-2.4-1.2-3.6-1.8
			l0.5-0.9c1.2,0.6,2.4,1.2,3.5,1.8L133,212.7z M126,209c-1.2-0.6-2.4-1.3-3.5-1.9l0.5-0.9c1.2,0.6,2.3,1.3,3.5,1.9L126,209z
			 M119,205.1c-1.2-0.6-2.3-1.3-3.5-2l0.5-0.9c1.1,0.7,2.3,1.3,3.5,2L119,205.1z M112,201.2c-1.1-0.7-2.3-1.4-3.4-2l0.5-0.9
			c1.1,0.7,2.3,1.4,3.4,2L112,201.2z M105.2,197c-1.1-0.7-2.3-1.4-3.4-2.1l0.5-0.9c1.1,0.7,2.3,1.4,3.4,2.1L105.2,197z M98.4,192.8
			c-1.1-0.7-2.2-1.5-3.4-2.2l0.6-0.8c1.1,0.7,2.2,1.5,3.4,2.2L98.4,192.8z M91.7,188.4c-1.1-0.7-2.2-1.5-3.3-2.2l0.6-0.8
			c1.1,0.8,2.2,1.5,3.3,2.2L91.7,188.4z M85.1,183.9c-1.1-0.8-2.2-1.5-3.3-2.3l0.6-0.8c1.1,0.8,2.2,1.5,3.3,2.3L85.1,183.9z
			 M78.6,179.3c-1.1-0.8-2.2-1.6-3.2-2.4l0.6-0.8c1.1,0.8,2.1,1.6,3.2,2.4L78.6,179.3z M72.2,174.5c-1.1-0.8-2.1-1.6-3.2-2.5
			l0.6-0.8c1,0.8,2.1,1.6,3.1,2.4L72.2,174.5z M65.9,169.5c-1-0.8-2.1-1.7-3.1-2.5l0.6-0.8c1,0.8,2.1,1.7,3.1,2.5L65.9,169.5z
			 M59.7,164.5c-1-0.9-2-1.7-3.1-2.6l0.7-0.8c1,0.9,2,1.7,3,2.6L59.7,164.5z M53.6,159.3c-1-0.9-2-1.8-3-2.7l0.7-0.7
			c1,0.9,2,1.8,3,2.6L53.6,159.3z M47.7,153.9c-1-0.9-2-1.8-2.9-2.7l0.7-0.7c1,0.9,1.9,1.8,2.9,2.7L47.7,153.9z M41.9,148.4
			c-1-0.9-1.9-1.9-2.9-2.8l0.7-0.7c0.9,0.9,1.9,1.9,2.8,2.8L41.9,148.4z M311.8,68.7c-1-0.9-2-1.8-2.9-2.7l0.7-0.7 M305.9,63.4
			c-1-0.9-2-1.8-3-2.6l0.6-0.8c1,0.9,2,1.8,3,2.6L305.9,63.4z M299.9,58.2c-1-0.9-2-1.7-3.1-2.6l0.6-0.8c1,0.9,2.1,1.7,3.1,2.6
			L299.9,58.2z M293.7,53.1c-1-0.8-2.1-1.6-3.1-2.5l0.6-0.8c1,0.8,2.1,1.6,3.1,2.5L293.7,53.1z M287.4,48.2c-1-0.8-2.1-1.6-3.2-2.4
			l0.6-0.8c1.1,0.8,2.1,1.6,3.2,2.4L287.4,48.2z M281,43.4c-1.1-0.8-2.1-1.6-3.2-2.3l0.6-0.8c1.1,0.8,2.2,1.6,3.2,2.3L281,43.4z
			 M247.7,21.6c-1.1-0.7-2.3-1.3-3.5-2l0.5-0.9c1.2,0.7,2.3,1.3,3.5,2L247.7,21.6z M240.8,17.6c-1.2-0.7-2.3-1.3-3.5-1.9l0.5-0.9
			c1.2,0.6,2.3,1.3,3.5,1.9L240.8,17.6z"/>
	</g>
	<path class="st0" d="M198.6,182.7l-1.7-0.1c-0.1-0.8-0.3-1.6-0.5-2.4l1.5-0.8c0.4-0.2,0.6-0.6,0.4-0.9l-1.3-2.6
		c-0.1-0.3-0.6-0.4-0.9-0.1l-1.5,0.8c-0.5-0.6-1-1.3-1.6-1.8l0.9-1.4c0.2-0.4,0.2-0.8-0.1-0.9l-2.5-1.6c-0.3-0.2-0.6,0-0.9,0.3
		l-0.9,1.4c-0.7-0.3-1.5-0.6-2.3-0.7l0.1-1.7c0-0.4-0.2-0.8-0.5-0.8l-3-0.1c-0.3,0-0.6,0.3-0.6,0.7l-0.1,1.7
		c-0.8,0.1-1.6,0.3-2.4,0.5l-0.8-1.5c-0.2-0.4-0.6-0.6-0.8-0.4l-2.6,1.4c-0.3,0.1-0.3,0.5-0.1,0.9l0.8,1.5c-0.6,0.5-1.3,1-1.8,1.6
		l-1.4-0.9c-0.4-0.2-0.8-0.2-0.9,0.1l-1.6,2.5c-0.2,0.3,0,0.6,0.3,0.9l1.4,0.9c-0.3,0.7-0.6,1.5-0.8,2.3l-1.7-0.1
		c-0.4,0-0.8,0.2-0.8,0.5l-0.1,3c0,0.3,0.3,0.6,0.7,0.6l1.7,0.1c0.1,0.8,0.3,1.6,0.5,2.4l-1.5,0.8c-0.4,0.2-0.6,0.6-0.4,0.9l1.3,2.6
		c0.1,0.3,0.6,0.3,0.9,0.1l1.5-0.8c0.5,0.6,1,1.3,1.6,1.8l-0.9,1.4c-0.2,0.4-0.2,0.8,0.1,0.9l2.5,1.6c0.3,0.2,0.7,0,0.9-0.3l0.9-1.4
		c0.7,0.3,1.5,0.6,2.3,0.7l-0.1,1.7c0,0.4,0.2,0.8,0.5,0.8l3,0.1c0.3,0,0.6-0.3,0.6-0.7l0.1-1.7c0.8-0.1,1.6-0.3,2.4-0.5l0.8,1.5
		c0.2,0.4,0.6,0.6,0.9,0.4l2.6-1.4c0.3-0.1,0.4-0.6,0.2-0.9l-0.8-1.5c0.6-0.5,1.3-1,1.8-1.6l1.4,0.9c0.4,0.2,0.8,0.2,0.9-0.1
		l1.6-2.5c0.2-0.3,0-0.6-0.3-0.9l-1.4-0.9c0.3-0.7,0.6-1.5,0.7-2.3l1.7,0.1c0.4,0,0.8-0.2,0.8-0.5l0.2-3
		C199.3,182.9,199,182.7,198.6,182.7z M192.7,184.4c-0.2,4.5-4.1,8-8.6,7.8s-8-4.1-7.8-8.6s4.1-8,8.6-7.8
		C189.4,176,192.9,179.9,192.7,184.4z"/>
	<path class="st1" d="M49.5,187.7l-1.7-0.1c-0.1-0.8-0.3-1.6-0.5-2.4l1.5-0.8c0.4-0.2,0.6-0.6,0.4-0.9l-1.3-2.6
		c-0.1-0.3-0.6-0.4-0.9-0.1l-1.5,0.8c-0.5-0.6-1-1.3-1.6-1.8l0.9-1.4c0.2-0.4,0.2-0.8-0.1-0.9l-2.5-1.6c-0.3-0.2-0.6,0-0.9,0.3
		l-0.9,1.4c-0.7-0.3-1.5-0.6-2.3-0.7l0.1-1.7c0-0.4-0.2-0.8-0.5-0.8l-3-0.1c-0.3,0-0.6,0.3-0.6,0.7l-0.1,1.7
		c-0.8,0.1-1.6,0.3-2.4,0.5l-0.8-1.5c-0.2-0.4-0.6-0.6-0.8-0.4l-2.6,1.4c-0.3,0.1-0.3,0.5-0.1,0.9l0.8,1.5c-0.7,0.5-1.3,1-1.8,1.6
		l-1.4-0.9c-0.3-0.2-0.8-0.2-0.9,0.1l-1.6,2.5c-0.2,0.3,0,0.6,0.3,0.9l1.4,0.9c-0.3,0.7-0.6,1.5-0.8,2.3l-1.7-0.1
		c-0.4,0-0.8,0.2-0.8,0.5l-0.2,3c0,0.3,0.3,0.6,0.7,0.6l1.7,0.1c0.1,0.8,0.3,1.6,0.5,2.4l-1.5,0.8c-0.4,0.2-0.6,0.6-0.4,0.9l1.3,2.6
		c0.2,0.3,0.6,0.4,0.9,0.1l1.5-0.8c0.5,0.6,1,1.3,1.6,1.8l-0.9,1.4c-0.2,0.4-0.2,0.8,0.1,0.9l2.5,1.6c0.3,0.2,0.7,0,0.9-0.3l0.9-1.4
		c0.7,0.3,1.5,0.6,2.3,0.7l-0.1,1.7c0,0.4,0.2,0.8,0.5,0.8l3,0.1c0.3,0,0.6-0.3,0.6-0.7l0.1-1.7c0.8-0.1,1.6-0.3,2.4-0.5l0.8,1.5
		c0.2,0.4,0.6,0.6,0.9,0.4l2.6-1.4c0.3-0.1,0.4-0.6,0.2-0.9l-0.8-1.5c0.6-0.5,1.3-1,1.8-1.6l1.4,0.9c0.4,0.2,0.8,0.2,0.9-0.1
		l1.6-2.5c0.2-0.3,0-0.6-0.3-0.9l-1.4-0.9c0.3-0.7,0.6-1.5,0.7-2.3l1.7,0.1c0.4,0,0.8-0.2,0.8-0.5l0.2-3
		C50.2,188,49.9,187.7,49.5,187.7z M43.6,189.4c-0.2,4.5-4.1,8-8.6,7.8s-8-4.1-7.8-8.6s4.1-8,8.6-7.8
		C40.3,181.1,43.8,184.9,43.6,189.4z"/>
	<path class="st1" d="M51.5,210.7h-1c-0.1-0.5-0.1-0.9-0.3-1.3l0.9-0.4c0.2-0.1,0.3-0.3,0.2-0.5l-0.8-1.5c-0.1-0.2-0.3-0.2-0.5-0.1
		l-0.9,0.4c-0.3-0.4-0.6-0.7-0.9-1l0.5-0.8c0.1-0.2,0.1-0.4,0-0.5l-1.4-0.9c-0.1-0.1-0.4,0-0.5,0.2l-0.5,0.8
		c-0.4-0.2-0.8-0.3-1.3-0.4l0.1-1c0-0.2-0.1-0.4-0.3-0.5l-1.7-0.1c-0.2,0-0.3,0.2-0.3,0.4l-0.1,1c-0.5,0-0.9,0.1-1.3,0.3l-0.4-0.9
		c-0.1-0.2-0.3-0.3-0.5-0.2l-1.5,0.8c-0.2,0.1-0.2,0.3-0.1,0.5l0.4,0.9c-0.4,0.3-0.7,0.6-1,0.9l-0.8-0.5c-0.2-0.1-0.4-0.1-0.5,0
		l-0.9,1.4c-0.1,0.1,0,0.4,0.2,0.5l0.8,0.5c-0.2,0.4-0.3,0.9-0.4,1.3h-1c-0.2,0-0.4,0.1-0.4,0.3l-0.1,1.7c0,0.2,0.2,0.3,0.4,0.3h1
		c0.1,0.5,0.1,0.9,0.3,1.3L36,214c-0.2,0.1-0.3,0.3-0.2,0.5l0.8,1.5c0.1,0.2,0.3,0.2,0.5,0.1l0.9-0.4c0.3,0.4,0.6,0.7,0.9,1
		l-0.5,0.8c-0.1,0.2-0.1,0.4,0,0.5l1.4,0.9c0.2,0.1,0.4,0,0.5-0.2l0.5-0.8c0.4,0.2,0.8,0.3,1.3,0.4l-0.1,1c0,0.2,0.1,0.4,0.3,0.5
		l1.7,0.1c0.2,0,0.3-0.2,0.3-0.4l0.1-1c0.5,0,0.9-0.1,1.3-0.3l0.4,0.9c0.1,0.2,0.3,0.3,0.5,0.2l1.5-0.8c0.2-0.1,0.2-0.3,0.1-0.5
		l-0.4-0.9c0.4-0.3,0.7-0.6,1-0.9l0.8,0.5c0.2,0.1,0.4,0.1,0.5,0l0.9-1.4c0.1-0.1,0-0.4-0.2-0.5l-0.8-0.5c0.2-0.4,0.3-0.9,0.4-1.3h1
		c0.2,0,0.4-0.1,0.4-0.3l0.1-1.7C51.9,210.9,51.7,210.7,51.5,210.7z M48.2,211.7c-0.1,2.6-2.3,4.5-4.9,4.4s-4.5-2.3-4.4-4.9
		s2.3-4.5,4.9-4.4C46.3,206.9,48.3,209.1,48.2,211.7z"/>
	<path class="st1" d="M133,35.7l-1.3,0.7c-0.4-0.6-0.9-1.1-1.4-1.5l0.8-1.2c0.2-0.3,0.2-0.6-0.1-0.8l-2.1-1.3
		c-0.2-0.1-0.6,0-0.7,0.3l-0.8,1.2c-0.6-0.3-1.3-0.5-1.9-0.6l0.1-1.4c0-0.3-0.2-0.6-0.4-0.7l-2.5-0.1c-0.3,0-0.5,0.3-0.5,0.6
		l-0.1,1.4c-0.7,0.1-1.3,0.2-2,0.4l-0.7-1.3c-0.2-0.3-0.5-0.5-0.7-0.3l-2.2,1.2c-0.2,0.1-0.3,0.5-0.1,0.8l0.7,1.3
		c-0.6,0.4-1.1,0.9-1.5,1.4l-1.2-0.8c-0.3-0.2-0.6-0.2-0.8,0.1l-1.3,2.1c-0.1,0.2,0,0.5,0.3,0.7l1.2,0.8c-0.3,0.6-0.5,1.3-0.6,1.9
		l-1.4-0.1c-0.4,0-0.6,0.2-0.6,0.4l-0.1,2.5c0,0.3,0.3,0.5,0.6,0.5l1.4,0.1c0.1,0.7,0.2,1.3,0.4,2l-1.3,0.7
		c-0.3,0.2-0.5,0.5-0.3,0.7l1.1,2.2c0.1,0.2,0.5,0.3,0.8,0.1l1.3-0.7c0.4,0.6,0.9,1.1,1.4,1.5l-0.8,1.2c-0.2,0.3-0.2,0.6,0.1,0.8
		l2.1,1.3c0.2,0.1,0.6,0,0.7-0.3l0.8-1.2c0.6,0.3,1.3,0.5,1.9,0.6l-0.1,1.4c0,0.4,0.2,0.6,0.4,0.6l2.5,0.1c0.3,0,0.5-0.3,0.5-0.6
		l0.1-1.4c0.7-0.1,1.3-0.2,2-0.4l0.7,1.3c0.2,0.3,0.5,0.5,0.7,0.4l2.2-1.1c0.2-0.1,0.3-0.5,0.1-0.8l-0.7-1.3
		c0.6-0.4,1.1-0.9,1.5-1.4l1.2,0.8c0.3,0.2,0.6,0.2,0.8-0.1l1.3-2.1c0.1-0.2,0-0.6-0.3-0.7l-1.2-0.8c0.3-0.6,0.5-1.3,0.6-1.9L135,45
		c0.4,0,0.6-0.2,0.6-0.4l0.1-2.5c0-0.3-0.3-0.5-0.6-0.5l-1.4-0.1c-0.1-0.7-0.2-1.3-0.4-2l1.3-0.7c0.3-0.2,0.5-0.5,0.4-0.7l-1.1-2.2
		C133.6,35.6,133.3,35.6,133,35.7z M129.5,39.5c1.8,3.4,0.5,7.5-2.9,9.3s-7.5,0.5-9.3-2.9s-0.5-7.5,2.9-9.3
		C123.5,34.8,127.7,36.1,129.5,39.5z"/>
	<path class="st0" d="M217.3,164.8l-1.3-0.1c-0.1-0.6-0.2-1.2-0.4-1.8l1.1-0.6c0.3-0.1,0.4-0.4,0.3-0.6l-1-2
		c-0.1-0.2-0.4-0.3-0.7-0.1l-1.1,0.6c-0.4-0.5-0.8-0.9-1.2-1.4l0.7-1.1c0.2-0.3,0.1-0.6,0-0.7l-1.9-1.2c-0.2-0.1-0.5,0-0.7,0.3
		l-0.7,1.1c-0.6-0.2-1.1-0.4-1.8-0.6l0.1-1.3c0-0.3-0.2-0.6-0.4-0.6l-2.3-0.1c-0.2,0-0.4,0.2-0.5,0.6l-0.1,1.3
		c-0.6,0.1-1.2,0.2-1.8,0.4l-0.6-1.2c-0.1-0.3-0.4-0.4-0.6-0.3l-2,1c-0.2,0.1-0.3,0.4-0.1,0.7l0.6,1.1c-0.5,0.4-0.9,0.8-1.4,1.2
		l-1.1-0.7c-0.3-0.2-0.6-0.1-0.7,0l-1.2,1.9c-0.1,0.2,0,0.5,0.3,0.7l1.1,0.7c-0.2,0.6-0.4,1.1-0.6,1.8l-1.3-0.1
		c-0.3,0-0.6,0.2-0.6,0.4l-0.1,2.2c0,0.2,0.2,0.4,0.6,0.5l1.3,0.1c0.1,0.6,0.2,1.2,0.4,1.8l-1.1,0.6c-0.3,0.1-0.4,0.4-0.3,0.6l1,2
		c0.1,0.2,0.4,0.3,0.7,0.1l1.1-0.6c0.4,0.5,0.8,1,1.2,1.4l-0.7,1.1c-0.2,0.3-0.1,0.6,0.1,0.7l1.9,1.2c0.2,0.1,0.5,0,0.7-0.3l0.7-1.1
		c0.6,0.2,1.1,0.4,1.8,0.6l-0.1,1.3c0,0.3,0.2,0.6,0.4,0.6l2.3,0.1c0.2,0,0.4-0.2,0.4-0.5l0.1-1.3c0.6-0.1,1.2-0.2,1.8-0.4l0.6,1.1
		c0.1,0.3,0.4,0.4,0.6,0.3l2-1c0.2-0.1,0.3-0.4,0.1-0.7l-0.6-1.1c0.5-0.4,0.9-0.8,1.4-1.2l1.1,0.7c0.3,0.2,0.6,0.1,0.7,0l1.2-1.9
		c0.1-0.2,0-0.5-0.3-0.7l-1.1-0.7c0.2-0.6,0.4-1.1,0.6-1.8l1.3,0.1c0.3,0,0.6-0.2,0.6-0.4l0.1-2.3
		C217.9,165.1,217.6,164.9,217.3,164.8z M206.3,172.1c-3.4-0.2-6.1-3.1-5.9-6.5c0.2-3.4,3.1-6.1,6.5-5.9s6.1,3.1,5.9,6.5
		C212.6,169.6,209.7,172.3,206.3,172.1z"/>
	<g>
		<g>
			<path class="st3" d="M184.4,139.6c-1.3,0.7-5.8,0.5-5.8,0.5s-1.1,4.6-0.2,6.3c0,0,4.6,0.1,5.9,0.6
				C185.6,147.5,184.4,139.6,184.4,139.6z"/>
			<path class="st4" d="M188.9,150.2c-1.4,0.5-2-0.1-2-0.1s-2,0.4-2.2-0.8c0,0-1.5,0.2-1.6-1.6c0,0-1-0.6-0.8-1.3s0.5-1,1.7-1.4
				c1.1-0.4,4.8-5.9,5.3-6.4s2.8-1.4,3.6-1.7s4.4,2.4,9.1,2.2c0,0,1.8,1.8,1,5.8c0,0-3.8-0.1-5.8,2.5
				C195,150,188.9,150.2,188.9,150.2z"/>
			<path class="st5" d="M188.9,150.2c-1.4,0.5-2-0.1-2-0.1s-2,0.4-2.2-0.8c0,0-1.5,0.2-1.6-1.6c0,0-1-0.6-0.8-1.3s0.5-1,1.7-1.4
				c1.1-0.4,4.8-5.9,5.3-6.4s2.8-1.4,3.6-1.7s4.4,2.4,9.1,2.2c0,0,1.8,1.8,1,5.8c0,0-3.8-0.1-5.8,2.5
				C195,150,188.9,150.2,188.9,150.2z"/>
			<path class="st3" d="M183.1,140.3c1.8-0.7,3.8-3.4,4.9-3.3c1.1,0.1,1.5,0.5,2.4,0.7s1.5,0.2,2.3,0.7s2.1,1.1,2.1,1.4
				s-2.3,1.2-5,0.1c0,0-1.2,0.9-1.7,1.1c0,0,0.4,2.8-4.1,4C183.9,145.1,181,142.1,183.1,140.3z"/>
			<path class="st3" d="M188.4,150.8c-0.7-0.1-0.7-0.9,0.1-1.8s1.9-3,3.1-2.3c0,0,0.8-1.8,2.1-1.5c0,0,1-2.3,2.6-0.8
				c0,0,1.1-0.7,1.5,0.1s-1.1,3.5-1.6,4.3s-1.9,1-1.9,1s-0.5,0.8-2.2,0.6c0,0-0.8,0.9-2.2,0.3C189.9,150.6,189.4,151,188.4,150.8z"
				/>
		</g>
		<path class="st6" d="M178.1,139.5h2.2c0,0,0.3,5.9-0.4,7.6c0,0-1.8,0-2.5-0.5S178.1,139.5,178.1,139.5z"/>
		<path class="st7" d="M177.7,147.4c0,0,1.4-6.4,0.8-8.8c0,0-20.4-3.4-25-5.2c0,0-10.3-16-14.6-21c-3.5-4-9.4-9.9-15.1-6.1
			c-5.7,3.9,2,14.8,11.1,23.9c9.1,9.2,13.3,12.8,15.8,13.5C153.1,144.6,177.7,147.4,177.7,147.4z"/>
		<path class="st8" d="M178.4,143.4c-2.3-0.2-24.8-2.7-26.9-3.2c-3.3-0.8-21.4-15.7-26.7-21.8c2.4,3.9,6.1,8.1,9.9,12
			c9.1,9.2,13.3,12.8,15.8,13.5s27.1,3.6,27.1,3.6S177.8,146,178.4,143.4z"/>
		<path class="st6" d="M201.7,136.2l-2.8,1c0,0,2,7.5,3.6,9.3l3.8-1.4L201.7,136.2z"/>
		<g>
			<g>
				<g>
					<g>
						<g>
							<path class="st9" d="M242.2,276c1.3,1.2,12.8-0.8,13.3,0.7c0.5,1.4,1.4,5.5,0.5,7.6c0,0,0.5,0.5,0.1,1.6
								c-0.4,1.1-3.3,1.5-7,1.6s-26.1,2.7-27.3-1.2c-0.4-1.3-1.1-4.2,1.7-3.9s9.1-1.3,10.6-2.1c1.5-0.8,4.6-2.2,5.9-3.4
								C241.1,275.9,241.6,275.5,242.2,276z"/>
						</g>
					</g>
					<g>
						<g>
							<path class="st9" d="M263.1,278.1c1.3,1.3,12.6-0.4,13.1,1.1c0.6,1.5,1.5,5.7,0.7,7.9c0,0,0.5,0.5,0.2,1.7
								c-0.4,1.2-3.2,1.5-6.9,1.5c-3.7,0-25.8,1.8-27-2c-0.5-1.4-1.2-4.4,1.5-4s9-1,10.4-1.9c1.4-0.8,4.5-2.1,5.7-3.3
								C262.1,277.9,262.6,277.6,263.1,278.1z"/>
						</g>
					</g>
					<g>
						<path class="st8" d="M261.3,158.4c0.1,7.6-2.9,23.7-3.1,25.5s-0.8,14.8-0.2,28.5s-0.3,52.6-1.2,65.4c0,0-5.8,2.3-17-1.1
							c0,0,2.9-40.2,0.9-51.7c-2.1-11.5-4.6-55.9-5-67.1L261.3,158.4z"/>
					</g>
					<g>
						<path class="st7" d="M265.7,161c3.7,11.5,0.7,20.2,0.7,22.1s1.6,18,4,31.5c2.4,13.4,5.8,52.1,6.5,65c0,0-5.3,1.6-16.9,0
							c0,0-1.6-38.7-5.2-49.8c-3.6-11.1-14.1-60.9-15.9-71.9L265.7,161z"/>
					</g>
					<g>
						<g>
							<path class="st5" d="M230.4,75c0.7-0.8,1.9-2.3,1.3-3.6c-0.4-0.8-0.5-0.6,0.1-2.9c1.2-4.2,5.3-5.6,6-6.4l0.4,0.8
								c1.1-1.9,2.5-3.5,4.3-3.8c4-0.7,9.8,3.1,12.3,5.8c2.5,2.7-0.2,7.9-3.1,13.3c-2.1,3.8-0.2,7.2,0.2,8.2
								c-0.9,0.3-9.5,8.7-9.5,8.7s-1.1-2.4-1.7-4c-0.2-0.5-0.6-0.6-1-1.2c-0.3-0.6-0.2-1.9-0.6-2.5c-0.1-0.1-0.1-0.2-0.2-0.3
								c-0.8-0.2-1.6-0.2-2.3-0.2c-1.3,0-3.8,0.5-4.7-0.2c-0.9-0.7-0.3-2.7-0.4-3.2c0-0.5-0.7-0.5-1.2-1s0.3-1.3,0.3-1.3
								c-0.2-0.2-1-1-0.5-1.4c0.5-0.5,1.3-1.1-0.4-2C228.2,77,229.3,76.3,230.4,75z"/>
						</g>
						<g>
							<g>
								<g>
									<g>
										<path d="M256.8,67.6c-1.7-5.4-5.4-10.7-11.7-10.9c-6.3-0.2-12,3.3-12.7,0.5c0,0-0.1,4.6,1.9,7.5c0.6-1.1,8.4,6.1,9.7,9.8
											c0.6,1.8,0.3-4.6,3.9-3.4c2.7,0.9,1.3,5.2,0.5,7.4c-0.6,1.6,2.2,4.4,2.2,4.4l-0.1,1.4l3.5-3.9
											C253.9,80.3,258.6,72.9,256.8,67.6z"/>
									</g>
								</g>
							</g>
						</g>
					</g>
					<g>
						<path class="st10" d="M252.9,84.2c0.3,0.5,0.5,1,0.5,1c3.9,1.8,11.2,10,11.4,19.1c0.1,4.9-0.2,16.4,0.3,28.6
							c0.4,10.3,1.2,16.1,2.3,21.5c0.9,4.7,2.6,16,2.6,16s-6.9,4.1-21.2,4.1c-11.8,0-13.8-1.2-13.8-1.2s-1.7-35.3-1.7-43.4
							c0-16,1-20.9,6-31C239.7,97.6,252.5,83.5,252.9,84.2z"/>
					</g>
					<g class="st11">
						<path class="st12" d="M247.2,79.4c0,0,1,5.2-7.8,8.9c0-0.3-0.1-0.6-0.2-0.8c-0.1-0.1-0.1-0.2-0.2-0.3
							c-0.8-0.2-1.6-0.2-2.3-0.2C236.7,87,246.6,84.5,247.2,79.4z"/>
					</g>
				</g>
				<path class="st7" d="M233.2,134.1c0.1,2.9,0.2,6.7,0.4,10.8c5.5-5.7,20.5-21.9,25.7-34.8C261.9,103.7,242.6,123.9,233.2,134.1z"
					/>
				<g>
					<g>
						<path class="st10" d="M255.5,88.3c-3.2,0.7-11.3,6.1-14.8,14.6c-2.7,6.5-12.7,21.4-12.7,21.4l-27.2,11.3c0,0,0.7,5.6,3.8,10.7
							c0,0,24.5-7.1,27.7-7.7c4.1-0.8,28.6-30.1,28.6-30.1L255.5,88.3z"/>
					</g>
				</g>
			</g>
			<path class="st6" d="M252,82.5c0,0-9,3.6-12.4,11.4c-0.2,0.5,0,3.7-0.5,4.9c-1.3,2.7-2.3,5-3.1,7.2c0.8-1.8,4.6-8.3,7.9-12.2
				c4.8-5.6,9.4-8.6,9.4-8.6S252.2,82.8,252,82.5z"/>
		</g>
		<path class="st3" d="M128.7,202.5c0.8,3,2.8,15.1,1.5,17s-4.7,10-3,23.2s1.9,20.7,1.3,24c-0.5,3-2.3,6.7-1.8,8.9
			c0.5,2.1,11.9,9.8,19.6,8.2c0,0-3.7-2.4-8-8c-4.6-5.9-1.3-21.6-0.5-27.6c0.8-6.1,7.5-25.8,6.9-30.1c-0.6-4.5-0.6-7.8-1.7-28.2
			L128.7,202.5z"/>
		<path class="st9" d="M127,272c0,0-2.7,3.6-1.5,8.4c0.8,3.1,1.1,5.8,1.2,7.8c0.1,1.4,1.2,2.5,2.7,2.5h15.4c5.2,0,7.4-1.9,6.4-3.9
			c-0.7-1.4-3.4-2.8-5.3-3.6C145.8,283.1,137.9,286.4,127,272z"/>
		<path class="st8" d="M124.3,191.2c3.6,13,5.9,20.3,4.4,23.3c-1.2,2.4-4.2,12-4.4,35.6c-0.1,6-1.6,15-0.9,22.5
			c0,0,7.4,4.3,16.5,2.2c0,0-1.1-34,2.5-44.9s4.6-24.5,3.9-40.8c-0.3-6.1,0.1-17.5-3.7-16.6C136.3,173.9,124.3,191.2,124.3,191.2z"
			/>
		<path class="st3" d="M121.3,195.3c-0.1,3.1,0.4,19.6-1.5,21.1s-7.4,8.4-9.5,21.8s-3.8,21.4-5.1,24.1c-1.4,2.9-4.6,5.6-4.7,7.9
			c-0.1,2.3,8.8,13,16.8,13.6c0,0-2-3.3-4.4-9.3c-2.8-7,3.7-22.3,6.2-28s15-24.2,15.6-28.7s5.1-21.3,5.1-21.3L121.3,195.3z"/>
		<path class="st9" d="M101.8,266.8c0,0-3.7,2.8-3.8,7.8c-0.1,3.3-0.6,6-1.1,8c-0.3,1.4,0.5,2.8,1.8,3.2l15.1,4.4
			c5,1.5,7.8,0.2,7.3-2c-0.3-1.5-2.5-3.7-4.2-5C117,283,108.3,283.9,101.8,266.8z"/>
		<path class="st7" d="M119.1,174.4c0.3,13.5,1.8,37.9-1.3,41.9c-4.9,6.5-5.9,11.2-12.8,36.8c-1,3.7-4.4,11.3-5.6,15.8
			c0,0,6.1,6,15.4,6.3c0,0,8-32.3,14.2-42s9.3-23.5,12.6-39.5c0.8-3.6,3.3-16.1,1.6-18.5C137.8,166.9,119.1,174.4,119.1,174.4z"/>
		<g>
			<g>
				<g>
					<g>
						<g>
							<g>
								<g>
									<path class="st3" d="M142.1,72c1.3,0.9,2.8,3.4,3.1,5.5c0.3,2.2,0.1,2.3-0.2,3.1c-0.5,1.2,0.7,2.2,1.4,2.9
										c1,1.1,2.3,2,0.8,2.8c-1.6,0.9-1.1,1.5-0.5,1.9c0.4,0.3-0.3,1-0.5,1.2c0,0,0.8,0.7,0.3,1.2s-1.1,0.5-1.1,0.9
										s0.6,2.2-0.3,2.9c-0.8,0.7-3.1,0.3-4.4,0.2c-1,0-2.9,0.5-4.1,1.5c-0.6,0.5,0.3,1.6-0.2,2c-2.5,2.4-5.6,3.1-9.5-1.7
										c-1.4-1.8,0.6-6.5,0.8-6.6c0.1-0.1,8.2-11.6,8.2-11.6L142.1,72z"/>
								</g>
							</g>
						</g>
						<g>
							<path class="st3" d="M122.3,92.3c0,0,4.5,1.2,4.3,3.1c-0.2,3.2-2.2,8.6-3.2,8.7c-1.6,0.2,20.5,11.3,17.6,6.6
								c-2.3-3.8-1.9-5-3.5-9.3c-0.3-0.7-1.4-2-0.9-3.2c3.4-7.9,5.9-22.7,5.9-22.7l-6.5-3.4c0,0-16.8,8.4-16.4,8.4
								C119.9,80.6,122.3,92.3,122.3,92.3z"/>
						</g>
						<g>
							<path class="st9" d="M142.9,72.8c-0.2-1.8-4.8-6.8-11.5-7.1s-11.3,3.2-13.9,10.6c0,0-1.4,4.3-0.2,8.3
								c1.1,3.4,4.3,7.2,6.9,9.6c1.5,1.5,2.1,3,2.1,3c1.2-0.2,5.5-6.1,5.3-8.2c-0.1-0.4-1.5,1.5-1.7-0.2c-0.3-2.1-1.9-3.1-1.9-3.1
								s-1-1.3-0.2-2.8s2.9-1.3,3.4-0.8s1.2,1.2,1.2,1.2s2-1.1,2.2-2.3c0.2-1.1-0.1-3,1.2-3.5s2.9-1.1,4.7-2.5
								C142.3,73.7,142.9,72.8,142.9,72.8z"/>
						</g>
						<g>
							<path class="st3" d="M140.8,94.7c0,0-5.4,0.2-2.8,7.7c2.6,7.4-10.6-1.5-10.6-1.5l8-8.6L140.8,94.7z"/>
						</g>
					</g>
					<g class="st11">
						<g>
							<path class="st4" d="M133.5,90.4L133.5,90.4L133.5,90.4z"/>
						</g>
						<g>
							<path class="st5" d="M133.5,90.4c-0.4,3.3,4.2,6.3,4.2,6.3c0.8-1.7,2.6-2,3-2.1h0.1c0.3,0,0.6,0,0.9,0.1
								C133.9,94.2,133.5,90.9,133.5,90.4z"/>
						</g>
					</g>
				</g>
			</g>
			<path class="st9" d="M120.5,72.1c-0.6-3.2-2.2-5.3-5-4.6c-2.9,0.7-5.9,2.4-6.3,7.5c-0.4,5.6,5.9,8.5,8.6,5
				C120.4,76.6,120.5,72.1,120.5,72.1z"/>
		</g>
		
			<linearGradient id="SVGID_1_" gradientUnits="userSpaceOnUse" x1="-80.0926" y1="484.0641" x2="-79.7174" y2="552.0633" gradientTransform="matrix(-1 0 0 1 57.896 -340)">
			<stop  offset="0" style="stop-color:#007AC3"/>
			<stop  offset="1" style="stop-color:#0057A2"/>
		</linearGradient>
		<path class="st13" d="M147.3,151.2c-13.2,0-18.5-28.1-18.5-28.1l18.5,17.7C147.1,142.5,147.2,146.3,147.3,151.2z"/>
		<path class="st6" d="M125.2,99.8l0.7-3.5c0,0,8.5,3.1,10.8,4.8c2.4,1.7,2.1,4.8,2.1,4.8L125.2,99.8z"/>
		<path class="st10" d="M118.6,154.5c-0.3,5.6-1.9,19.7-2.4,25.8c0.1,0,7.2,2.8,31.3,1.8c0-1.3,0-2.7,0-4.2c0-13-0.4-34.2-0.3-37.5
			c0.6-26-8.4-34.3-8.4-34.3L126,99.4c0,0-10.4,5.9-10,25.4C116.3,131.9,119.2,140.2,118.6,154.5z"/>
		<path class="st7" d="M116.2,180.2c0.1,0,7.2,2.8,31.3,1.8c0-1.3,0-2.7,0-4.2c0-2,0-4.2,0-6.5l-16.6-2.8c0,0-4.3-33.6-2.2-40.7
			c0,0-5.8-0.6-12.5-0.5c0.6,6.7,2.9,14.6,2.3,27.2C118.3,160,116.7,174.2,116.2,180.2z"/>
		<path class="st14" d="M136.4,195.3L107,191c-0.6-0.1-0.9-0.6-0.9-1.2l2.9-20c0.1-0.6,0.6-1,1.2-0.9l29.4,4.3
			c0.6,0.1,0.9,0.6,0.9,1.2l-2.9,20C137.5,195,137,195.3,136.4,195.3z"/>
		<path class="st15" d="M139.7,173.2l-29.4-4.3c-0.6-0.1-1.1,0.3-1.2,0.9l-1.1,7.4c-0.1,0.6,0.3,1.1,0.9,1.2l29.4,4.3
			c0.6,0.1,1.1-0.3,1.2-0.9l1.1-7.4C140.6,173.8,140.2,173.3,139.7,173.2z"/>
		<g>
			<path class="st3" d="M124.4,101.2c-7.6,4.1-8.9,17.8-10.4,34.4s-1.7,16.4,0.1,24.2c1.8,7.8,6.5,23.1,5.9,25.7
				c-0.5,2.6-0.9,7.3,2.1,8.7c4,2,9.3,1,8.4,0.2c-1.1-1.1-2.8-3.1-3-4.3c-0.1-0.7,3.5,3.7,4.1,2.4c0.1-0.1-0.6-1-1.1-1.9
				c-0.9-1.5-1.9-3.2-2.4-3.6c-1.8-1.2-2.7-2.4-3.4-4.9s-1.7-24.8-2.6-29.9l8.7-32.7C130.9,119.5,135.2,107.8,124.4,101.2z"/>
			<path class="st6" d="M118.2,182l0.1,1.6c0,0,6.5,0.3,8.2-0.8l-0.6-2.2L118.2,182z"/>
			<path class="st10" d="M117.6,182.1c0,0,5.8,0.4,9.2-0.9c0,0-2.4-25.5-4-30.8c0,0,8.8-28.9,9.4-35.1c0.6-6.1-3.5-14.3-6.8-15.5
				c0,0-7.4,2.2-10.8,19.1c-3.3,16.9-4,28.7-3.8,30.6C111,151.4,117.6,182.1,117.6,182.1z"/>
		</g>
	</g>
	<g>
		<g>
			<g class="st16">
				<path class="st0" d="M193.3,93c-0.4,0-0.7-0.3-0.7-0.6s0.3-0.6,0.7-0.6s0.7,0.3,0.7,0.6C193.9,92.7,193.6,93,193.3,93z"/>
				<path class="st0" d="M190.5,90.5c-0.4,0-0.7-0.3-0.7-0.6s0.3-0.6,0.7-0.6s0.7,0.3,0.7,0.6S190.9,90.5,190.5,90.5z"/>
				<path class="st0" d="M196,95.6c-0.4,0-0.7-0.3-0.7-0.6s0.3-0.6,0.7-0.6s0.7,0.3,0.7,0.6S196.4,95.6,196,95.6z"/>
				<path class="st0" d="M198.7,98.2c-0.4,0-0.6-0.3-0.6-0.6s0.3-0.6,0.6-0.6s0.7,0.3,0.7,0.6S199.1,98.2,198.7,98.2z"/>
				<path class="st0" d="M201.5,100.7c-0.4,0-0.6-0.3-0.6-0.6s0.3-0.6,0.6-0.6s0.6,0.3,0.6,0.6S201.8,100.7,201.5,100.7z"/>
				<path class="st0" d="M204.2,103.3c-0.4,0-0.6-0.3-0.6-0.6s0.3-0.6,0.6-0.6s0.6,0.3,0.6,0.6S204.5,103.3,204.2,103.3z"/>
				<path class="st0" d="M206.9,105.8c-0.3,0-0.6-0.3-0.6-0.6s0.3-0.6,0.6-0.6s0.6,0.3,0.6,0.6C207.5,105.6,207.3,105.8,206.9,105.8
					z"/>
				<path class="st0" d="M209.7,108.4c-0.3,0-0.6-0.3-0.6-0.6s0.3-0.6,0.6-0.6s0.6,0.3,0.6,0.6C210.2,108.1,210,108.4,209.7,108.4z"
					/>
				<path class="st0" d="M187.8,93c-0.4,0-0.7-0.3-0.7-0.6s0.3-0.6,0.7-0.6s0.7,0.3,0.7,0.6S188.2,93,187.8,93z"/>
				<path class="st0" d="M185.1,95.6c-0.4,0-0.7-0.3-0.7-0.6s0.3-0.6,0.7-0.6s0.7,0.3,0.7,0.6C185.7,95.3,185.4,95.6,185.1,95.6z"/>
				<path class="st0" d="M182.3,98.2c-0.4,0-0.7-0.3-0.7-0.6s0.3-0.6,0.7-0.6s0.6,0.3,0.6,0.6S182.7,98.2,182.3,98.2z"/>
				<path class="st0" d="M179.6,100.7c-0.4,0-0.6-0.3-0.6-0.6s0.3-0.6,0.6-0.6s0.6,0.3,0.6,0.6C180.2,100.4,180,100.7,179.6,100.7z"
					/>
				<path class="st0" d="M176.9,103.3c-0.4,0-0.6-0.3-0.6-0.6s0.3-0.6,0.6-0.6s0.6,0.3,0.6,0.6S177.2,103.3,176.9,103.3z"/>
				<path class="st0" d="M174.2,105.8c-0.3,0-0.6-0.3-0.6-0.6s0.3-0.6,0.6-0.6s0.6,0.3,0.6,0.6C174.8,105.6,174.5,105.8,174.2,105.8
					z"/>
				<path class="st0" d="M171.4,108.4c-0.3,0-0.6-0.3-0.6-0.6s0.3-0.6,0.6-0.6s0.6,0.3,0.6,0.6C172,108.1,171.7,108.4,171.4,108.4z"
					/>
			</g>
			<g class="st17">
				<path class="st0" d="M193.3,96.5c-0.3,0-0.6-0.3-0.6-0.6s0.3-0.6,0.6-0.6s0.6,0.3,0.6,0.6C193.9,96.3,193.6,96.5,193.3,96.5z"/>
				<path class="st0" d="M190.5,94c-0.3,0-0.6-0.3-0.6-0.6s0.3-0.6,0.6-0.6s0.6,0.3,0.6,0.6C191.2,93.8,190.9,94,190.5,94z"/>
				<path class="st0" d="M196,99.1c-0.3,0-0.6-0.3-0.6-0.6s0.3-0.6,0.6-0.6s0.6,0.3,0.6,0.6S196.3,99.1,196,99.1z"/>
				<path class="st0" d="M198.7,101.6c-0.3,0-0.6-0.3-0.6-0.6s0.3-0.6,0.6-0.6s0.6,0.3,0.6,0.6S199.1,101.6,198.7,101.6z"/>
				<ellipse class="st0" cx="201.5" cy="103.7" rx="0.6" ry="0.6"/>
				<path class="st0" d="M204.2,106.8c-0.3,0-0.6-0.2-0.6-0.5s0.3-0.5,0.6-0.5s0.6,0.2,0.6,0.5C204.7,106.5,204.5,106.8,204.2,106.8
					z"/>
				<path class="st0" d="M206.9,109.3c-0.3,0-0.6-0.2-0.6-0.5s0.3-0.5,0.6-0.5s0.6,0.2,0.6,0.5C207.5,109.1,207.2,109.3,206.9,109.3
					z"/>
				<path class="st0" d="M209.7,111.9c-0.3,0-0.6-0.2-0.6-0.5s0.3-0.5,0.6-0.5s0.6,0.2,0.6,0.5S210,111.9,209.7,111.9z"/>
				<path class="st0" d="M187.8,96.5c-0.3,0-0.6-0.3-0.6-0.6s0.3-0.6,0.6-0.6s0.6,0.3,0.6,0.6C188.4,96.3,188.1,96.5,187.8,96.5z"/>
				<path class="st0" d="M185.1,99.1c-0.3,0-0.6-0.3-0.6-0.6s0.3-0.6,0.6-0.6s0.6,0.3,0.6,0.6C185.7,98.8,185.4,99.1,185.1,99.1z"/>
				<path class="st0" d="M182.3,101.6c-0.3,0-0.6-0.3-0.6-0.6s0.3-0.6,0.6-0.6s0.6,0.3,0.6,0.6S182.7,101.6,182.3,101.6z"/>
				<path class="st0" d="M179.6,104.2c-0.3,0-0.6-0.3-0.6-0.6s0.3-0.6,0.6-0.6s0.6,0.3,0.6,0.6S179.9,104.2,179.6,104.2z"/>
				<path class="st0" d="M176.9,106.8c-0.3,0-0.6-0.2-0.6-0.5s0.3-0.5,0.6-0.5s0.6,0.2,0.6,0.5C177.5,106.5,177.2,106.8,176.9,106.8
					z"/>
				<path class="st0" d="M174.2,109.3c-0.3,0-0.6-0.2-0.6-0.5s0.3-0.5,0.6-0.5s0.6,0.2,0.6,0.5C174.7,109.1,174.5,109.3,174.2,109.3
					z"/>
				<path class="st0" d="M171.4,111.9c-0.3,0-0.6-0.2-0.6-0.5s0.2-0.5,0.6-0.5c0.3,0,0.5,0.2,0.5,0.5S171.7,111.9,171.4,111.9z"/>
			</g>
			<g class="st11">
				<path class="st0" d="M193.3,99.9c-0.3,0-0.4-0.2-0.4-0.4s0.2-0.4,0.4-0.4s0.4,0.2,0.4,0.4S193.5,99.9,193.3,99.9z"/>
				<path class="st0" d="M190.5,97.4c-0.3,0-0.4-0.2-0.4-0.4s0.2-0.4,0.4-0.4s0.4,0.2,0.4,0.4S190.8,97.4,190.5,97.4z"/>
				<path class="st0" d="M196,102.5c-0.2,0-0.4-0.2-0.4-0.4s0.2-0.4,0.4-0.4s0.4,0.2,0.4,0.4C196.4,102.3,196.2,102.5,196,102.5z"/>
				<path class="st0" d="M198.7,105.1c-0.2,0-0.4-0.2-0.4-0.4s0.2-0.4,0.4-0.4s0.4,0.2,0.4,0.4C199.2,104.9,199,105.1,198.7,105.1z"
					/>
				<path class="st0" d="M201.5,107.6c-0.2,0-0.4-0.2-0.4-0.4s0.2-0.4,0.4-0.4s0.4,0.2,0.4,0.4S201.7,107.6,201.5,107.6z"/>
				<path class="st0" d="M204.2,110.2c-0.2,0-0.4-0.2-0.4-0.4s0.2-0.4,0.4-0.4s0.4,0.2,0.4,0.4S204.4,110.2,204.2,110.2z"/>
				<path class="st0" d="M206.9,112.8c-0.2,0-0.4-0.2-0.4-0.4s0.2-0.4,0.4-0.4s0.4,0.2,0.4,0.4S207.1,112.8,206.9,112.8z"/>
				<path class="st0" d="M209.7,115.3c-0.2,0-0.4-0.2-0.4-0.4s0.2-0.4,0.4-0.4s0.4,0.2,0.4,0.4C210.1,115.1,209.9,115.3,209.7,115.3
					z"/>
				<path class="st0" d="M187.8,99.9c-0.2,0-0.4-0.2-0.4-0.4s0.2-0.4,0.4-0.4s0.4,0.2,0.4,0.4S188.1,99.9,187.8,99.9z"/>
				<path class="st0" d="M185.1,102.5c-0.2,0-0.4-0.2-0.4-0.4s0.2-0.4,0.4-0.4s0.4,0.2,0.4,0.4S185.3,102.5,185.1,102.5z"/>
				<path class="st0" d="M182.3,105.1c-0.2,0-0.4-0.2-0.4-0.4s0.2-0.4,0.4-0.4s0.4,0.2,0.4,0.4C182.8,104.9,182.6,105.1,182.3,105.1
					z"/>
				<path class="st0" d="M179.6,107.6c-0.2,0-0.4-0.2-0.4-0.4s0.2-0.4,0.4-0.4s0.4,0.2,0.4,0.4C180,107.4,179.8,107.6,179.6,107.6z"
					/>
				<path class="st0" d="M176.9,110.2c-0.2,0-0.4-0.2-0.4-0.4s0.2-0.4,0.4-0.4s0.4,0.2,0.4,0.4S177.1,110.2,176.9,110.2z"/>
				<path class="st0" d="M174.2,112.8c-0.2,0-0.4-0.2-0.4-0.4s0.2-0.4,0.4-0.4s0.4,0.2,0.4,0.4S174.4,112.8,174.2,112.8z"/>
				<path class="st0" d="M171.4,115.3c-0.2,0-0.4-0.2-0.4-0.4s0.2-0.4,0.4-0.4s0.4,0.2,0.4,0.4S171.6,115.3,171.4,115.3z"/>
			</g>
		</g>
		<path class="st0" d="M190.5,55c-0.6,0-1.1-0.5-1.1-1.1s0.5-1.1,1.1-1.1s1.1,0.5,1.1,1.1C191.7,54.5,191.2,55,190.5,55z"/>
		<path class="st0" d="M190.5,58.6c-0.6,0-1.1-0.4-1.1-1s0.5-1,1.1-1s1.1,0.5,1.1,1S191.1,58.6,190.5,58.6z"/>
		<path class="st0" d="M190.5,62.1c-0.6,0-1-0.4-1-1c0-0.5,0.5-1,1-1c0.6,0,1,0.4,1,1C191.6,61.7,191.1,62.1,190.5,62.1z"/>
		<path class="st0" d="M190.5,65.6c-0.5,0-1-0.4-1-0.9s0.4-0.9,1-0.9s1,0.4,1,0.9S191.1,65.6,190.5,65.6z"/>
		<path class="st0" d="M190.5,69.2c-0.5,0-0.9-0.4-0.9-0.9s0.4-0.9,0.9-0.9s0.9,0.4,0.9,0.9C191.5,68.8,191.1,69.2,190.5,69.2z"/>
		<path class="st0" d="M190.5,72.7c-0.5,0-0.9-0.4-0.9-0.8s0.4-0.8,0.9-0.8s0.9,0.4,0.9,0.8C191.4,72.4,191,72.7,190.5,72.7z"/>
		<path class="st0" d="M190.5,76.3c-0.5,0-0.8-0.4-0.8-0.8c0-0.4,0.4-0.8,0.8-0.8c0.5,0,0.8,0.4,0.8,0.8S191,76.3,190.5,76.3z"/>
		<path class="st0" d="M190.5,79.8c-0.4,0-0.8-0.3-0.8-0.7s0.4-0.7,0.8-0.7c0.4,0,0.8,0.3,0.8,0.7S191,79.8,190.5,79.8z"/>
		<path class="st0" d="M190.5,83.4c-0.4,0-0.7-0.3-0.7-0.7s0.3-0.7,0.7-0.7s0.7,0.3,0.7,0.7C191.3,83.1,190.9,83.4,190.5,83.4z"/>
		<path class="st0" d="M190.5,86.9c-0.4,0-0.7-0.3-0.7-0.6s0.3-0.6,0.7-0.6s0.7,0.3,0.7,0.6C191.2,86.6,190.9,86.9,190.5,86.9z"/>
		<path class="st0" d="M193.3,57.6c-0.6,0-1.1-0.5-1.1-1c0-0.6,0.5-1,1.1-1s1.1,0.5,1.1,1S193.9,57.6,193.3,57.6z"/>
		<path class="st0" d="M193.3,61.1c-0.6,0-1.1-0.4-1.1-1c0-0.5,0.5-1,1.1-1s1.1,0.4,1.1,1C194.3,60.7,193.8,61.1,193.3,61.1z"/>
		<path class="st0" d="M193.3,64.6c-0.6,0-1-0.4-1-0.9s0.4-0.9,1-0.9s1,0.4,1,0.9S193.8,64.6,193.3,64.6z"/>
		<path class="st0" d="M193.3,68.2c-0.5,0-1-0.4-1-0.9s0.4-0.9,1-0.9c0.5,0,1,0.4,1,0.9C194.2,67.8,193.8,68.2,193.3,68.2z"/>
		<path class="st0" d="M193.3,71.7c-0.5,0-0.9-0.4-0.9-0.9s0.4-0.9,0.9-0.9s0.9,0.4,0.9,0.9C194.2,71.4,193.8,71.7,193.3,71.7z"/>
		<path class="st0" d="M193.3,75.3c-0.5,0-0.9-0.4-0.9-0.8c0-0.4,0.4-0.8,0.9-0.8s0.9,0.4,0.9,0.8C194.1,74.9,193.7,75.3,193.3,75.3
			z"/>
		<path class="st0" d="M193.3,78.8c-0.4,0-0.8-0.3-0.8-0.8c0-0.4,0.4-0.8,0.8-0.8c0.4,0,0.8,0.4,0.8,0.8
			C194.1,78.5,193.7,78.8,193.3,78.8z"/>
		<path class="st0" d="M193.3,82.4c-0.4,0-0.8-0.3-0.8-0.7s0.4-0.7,0.8-0.7s0.8,0.3,0.8,0.7C194,82.1,193.7,82.4,193.3,82.4z"/>
		<path class="st0" d="M193.3,85.9c-0.4,0-0.7-0.3-0.7-0.7s0.3-0.7,0.7-0.7s0.7,0.3,0.7,0.7C194,85.6,193.7,85.9,193.3,85.9z"/>
		<path class="st0" d="M193.3,89.5c-0.4,0-0.7-0.3-0.7-0.6s0.3-0.6,0.7-0.6s0.7,0.3,0.7,0.6C193.9,89.2,193.6,89.5,193.3,89.5z"/>
		<path class="st0" d="M196,60.1c-0.6,0-1.1-0.4-1.1-1s0.5-1,1.1-1s1.1,0.4,1.1,1S196.6,60.1,196,60.1z"/>
		<path class="st0" d="M196,63.6c-0.6,0-1-0.4-1-1c0-0.5,0.5-1,1-1s1,0.4,1,1C197,63.2,196.6,63.6,196,63.6z"/>
		<path class="st0" d="M196,67.2c-0.5,0-1-0.4-1-0.9s0.4-0.9,1-0.9s1,0.4,1,0.9S196.5,67.2,196,67.2z"/>
		<path class="st0" d="M196,70.7c-0.5,0-0.9-0.4-0.9-0.9s0.4-0.9,0.9-0.9s0.9,0.4,0.9,0.9C196.9,70.4,196.5,70.7,196,70.7z"/>
		<path class="st0" d="M196,74.3c-0.5,0-0.9-0.4-0.9-0.8c0-0.5,0.4-0.8,0.9-0.8s0.9,0.4,0.9,0.8C196.9,73.9,196.5,74.3,196,74.3z"/>
		<path class="st0" d="M196,77.8c-0.5,0-0.8-0.4-0.8-0.8c0-0.4,0.4-0.8,0.8-0.8c0.5,0,0.9,0.4,0.9,0.8
			C196.8,77.5,196.5,77.8,196,77.8z"/>
		<path class="st0" d="M196,81.4c-0.4,0-0.8-0.3-0.8-0.8s0.4-0.8,0.8-0.8s0.8,0.3,0.8,0.8C196.8,81,196.4,81.4,196,81.4z"/>
		<path class="st0" d="M196,84.9c-0.4,0-0.8-0.3-0.8-0.7s0.3-0.7,0.8-0.7s0.8,0.3,0.8,0.7C196.7,84.6,196.4,84.9,196,84.9z"/>
		<path class="st0" d="M196,88.5c-0.4,0-0.7-0.3-0.7-0.7s0.3-0.7,0.7-0.7s0.7,0.3,0.7,0.7S196.4,88.5,196,88.5z"/>
		<path class="st0" d="M196,92c-0.4,0-0.7-0.3-0.7-0.6s0.3-0.6,0.7-0.6s0.7,0.3,0.7,0.6S196.4,92,196,92z"/>
		<path class="st0" d="M198.7,62.6c-0.6,0-1-0.4-1-1s0.5-1,1-1c0.6,0,1,0.4,1,1C199.8,62.2,199.3,62.6,198.7,62.6z"/>
		<path class="st0" d="M198.7,66.2c-0.6,0-1-0.4-1-0.9s0.4-0.9,1-0.9s1,0.4,1,0.9S199.3,66.2,198.7,66.2z"/>
		<path class="st0" d="M198.7,69.7c-0.5,0-0.9-0.4-0.9-0.9s0.4-0.9,0.9-0.9s0.9,0.4,0.9,0.9C199.7,69.3,199.2,69.7,198.7,69.7z"/>
		<path class="st0" d="M198.7,73.3c-0.5,0-0.9-0.4-0.9-0.9s0.4-0.9,0.9-0.9s0.9,0.4,0.9,0.9C199.6,72.9,199.2,73.3,198.7,73.3z"/>
		<path class="st0" d="M198.7,76.8c-0.5,0-0.9-0.4-0.9-0.8c0-0.4,0.4-0.8,0.9-0.8s0.9,0.4,0.9,0.8C199.6,76.5,199.2,76.8,198.7,76.8
			z"/>
		<path class="st0" d="M198.7,80.4c-0.4,0-0.8-0.4-0.8-0.8s0.4-0.8,0.8-0.8c0.5,0,0.8,0.4,0.8,0.8C199.6,80,199.2,80.4,198.7,80.4z"
			/>
		<path class="st0" d="M198.7,83.9c-0.4,0-0.8-0.3-0.8-0.7s0.4-0.7,0.8-0.7s0.8,0.3,0.8,0.7S199.2,83.9,198.7,83.9z"/>
		<path class="st0" d="M198.7,87.5c-0.4,0-0.7-0.3-0.7-0.7s0.3-0.7,0.7-0.7s0.7,0.3,0.7,0.7C199.5,87.2,199.1,87.5,198.7,87.5z"/>
		<path class="st0" d="M198.7,91c-0.4,0-0.7-0.3-0.7-0.7s0.3-0.7,0.7-0.7s0.7,0.3,0.7,0.7C199.4,90.7,199.1,91,198.7,91z"/>
		<path class="st0" d="M198.7,94.6c-0.4,0-0.7-0.3-0.7-0.6s0.3-0.6,0.7-0.6s0.7,0.3,0.7,0.6C199.4,94.3,199.1,94.6,198.7,94.6z"/>
		<path class="st0" d="M201.5,65.2c-0.6,0-1-0.4-1-0.9s0.4-0.9,1-0.9s1,0.4,1,0.9S202,65.2,201.5,65.2z"/>
		<path class="st0" d="M201.5,68.7c-0.5,0-1-0.4-1-0.9s0.4-0.9,1-0.9c0.5,0,1,0.4,1,0.9C202.4,68.3,202,68.7,201.5,68.7z"/>
		<path class="st0" d="M201.5,72.3c-0.5,0-0.9-0.4-0.9-0.9s0.4-0.9,0.9-0.9s0.9,0.4,0.9,0.9S202,72.3,201.5,72.3z"/>
		<path class="st0" d="M201.5,75.8c-0.5,0-0.9-0.4-0.9-0.8s0.4-0.8,0.9-0.8s0.9,0.4,0.9,0.8C202.3,75.5,202,75.8,201.5,75.8z"/>
		<path class="st0" d="M201.5,79.4c-0.5,0-0.9-0.4-0.9-0.8s0.4-0.8,0.9-0.8s0.8,0.4,0.8,0.8S201.9,79.4,201.5,79.4z"/>
		<path class="st0" d="M201.5,82.9c-0.4,0-0.8-0.3-0.8-0.8s0.4-0.8,0.8-0.8s0.8,0.3,0.8,0.8S201.9,82.9,201.5,82.9z"/>
		<path class="st0" d="M201.5,86.5c-0.4,0-0.8-0.3-0.8-0.7s0.3-0.7,0.8-0.7s0.8,0.3,0.8,0.7S201.9,86.5,201.5,86.5z"/>
		<path class="st0" d="M201.5,90c-0.4,0-0.7-0.3-0.7-0.7s0.3-0.7,0.7-0.7s0.7,0.3,0.7,0.7S201.9,90,201.5,90z"/>
		<path class="st0" d="M201.5,93.6c-0.4,0-0.7-0.3-0.7-0.6s0.3-0.6,0.7-0.6s0.7,0.3,0.7,0.6C202.1,93.3,201.8,93.6,201.5,93.6z"/>
		<path class="st0" d="M201.5,97.2c-0.4,0-0.6-0.3-0.6-0.6s0.3-0.6,0.6-0.6c0.4,0,0.6,0.3,0.6,0.6S201.8,97.2,201.5,97.2z"/>
		<path class="st0" d="M204.2,67.7c-0.5,0-1-0.4-1-0.9s0.4-0.9,1-0.9s1,0.4,1,0.9S204.7,67.7,204.2,67.7z"/>
		<path class="st0" d="M204.2,71.3c-0.5,0-0.9-0.4-0.9-0.9s0.4-0.9,0.9-0.9s0.9,0.4,0.9,0.9C205.1,70.9,204.7,71.3,204.2,71.3z"/>
		<path class="st0" d="M204.2,74.8c-0.5,0-0.9-0.4-0.9-0.9s0.4-0.9,0.9-0.9s0.9,0.4,0.9,0.9C205.1,74.5,204.7,74.8,204.2,74.8z"/>
		<path class="st0" d="M204.2,78.4c-0.5,0-0.9-0.4-0.9-0.8s0.4-0.8,0.9-0.8s0.9,0.4,0.9,0.8C205.1,78,204.7,78.4,204.2,78.4z"/>
		<path class="st0" d="M204.2,81.9c-0.4,0-0.8-0.4-0.8-0.8c0-0.4,0.4-0.8,0.8-0.8c0.5,0,0.8,0.4,0.8,0.8
			C205,81.6,204.6,81.9,204.2,81.9z"/>
		<path class="st0" d="M204.2,85.5c-0.4,0-0.8-0.3-0.8-0.7s0.4-0.7,0.8-0.7s0.8,0.3,0.8,0.7S204.6,85.5,204.2,85.5z"/>
		<path class="st0" d="M204.2,89.1c-0.4,0-0.8-0.3-0.8-0.7s0.3-0.7,0.8-0.7s0.8,0.3,0.8,0.7C204.9,88.7,204.6,89.1,204.2,89.1z"/>
		<path class="st0" d="M204.2,92.6c-0.4,0-0.7-0.3-0.7-0.7s0.3-0.7,0.7-0.7s0.7,0.3,0.7,0.7C204.9,92.3,204.6,92.6,204.2,92.6z"/>
		<path class="st0" d="M204.2,96.2c-0.4,0-0.7-0.3-0.7-0.6s0.3-0.6,0.7-0.6s0.7,0.3,0.7,0.6S204.6,96.2,204.2,96.2z"/>
		<path class="st0" d="M204.2,99.7c-0.4,0-0.6-0.3-0.6-0.6s0.3-0.6,0.6-0.6s0.6,0.3,0.6,0.6S204.5,99.7,204.2,99.7z"/>
		<path class="st0" d="M206.9,70.3c-0.5,0-0.9-0.4-0.9-0.9s0.4-0.9,0.9-0.9s0.9,0.4,0.9,0.9C207.9,69.9,207.4,70.3,206.9,70.3z"/>
		<path class="st0" d="M206.9,73.8c-0.5,0-0.9-0.4-0.9-0.9s0.4-0.9,0.9-0.9s0.9,0.4,0.9,0.9C207.8,73.4,207.4,73.8,206.9,73.8z"/>
		<path class="st0" d="M206.9,77.4c-0.5,0-0.9-0.4-0.9-0.8c0-0.4,0.4-0.8,0.9-0.8s0.9,0.4,0.9,0.8S207.4,77.4,206.9,77.4z"/>
		<path class="st0" d="M206.9,80.9c-0.5,0-0.8-0.4-0.8-0.8c0-0.4,0.4-0.8,0.8-0.8c0.5,0,0.8,0.4,0.8,0.8
			C207.8,80.6,207.4,80.9,206.9,80.9z"/>
		<path class="st0" d="M206.9,84.5c-0.4,0-0.8-0.3-0.8-0.8s0.4-0.8,0.8-0.8s0.8,0.3,0.8,0.8C207.7,84.2,207.4,84.5,206.9,84.5z"/>
		<path class="st0" d="M206.9,88.1c-0.4,0-0.8-0.3-0.8-0.7s0.3-0.7,0.8-0.7s0.8,0.3,0.8,0.7C207.7,87.7,207.3,88.1,206.9,88.1z"/>
		<path class="st0" d="M206.9,91.6c-0.4,0-0.7-0.3-0.7-0.7s0.3-0.7,0.7-0.7s0.7,0.3,0.7,0.7S207.3,91.6,206.9,91.6z"/>
		<path class="st0" d="M206.5,94.8c-0.4,0-0.7-0.3-0.7-0.6s0.3-0.6,0.7-0.6s0.7,0.3,0.7,0.6S206.9,94.8,206.5,94.8z"/>
		<path class="st0" d="M206.9,98.7c-0.4,0-0.6-0.3-0.6-0.6s0.3-0.6,0.6-0.6s0.7,0.3,0.7,0.6S207.3,98.7,206.9,98.7z"/>
		<path class="st0" d="M206.9,102.3c-0.3,0-0.6-0.3-0.6-0.6s0.3-0.6,0.6-0.6s0.6,0.3,0.6,0.6C207.5,102,207.3,102.3,206.9,102.3z"/>
		<path class="st0" d="M209.7,72.8c-0.5,0-0.9-0.4-0.9-0.9s0.4-0.9,0.9-0.9s0.9,0.4,0.9,0.9C210.6,72.4,210.2,72.8,209.7,72.8z"/>
		<path class="st0" d="M209.7,76.4c-0.5,0-0.9-0.4-0.9-0.8s0.4-0.8,0.9-0.8s0.9,0.4,0.9,0.8S210.1,76.4,209.7,76.4z"/>
		<path class="st0" d="M209.7,79.9c-0.5,0-0.9-0.4-0.9-0.8s0.4-0.8,0.9-0.8s0.9,0.4,0.9,0.8C210.5,79.6,210.1,79.9,209.7,79.9z"/>
		<path class="st0" d="M209.7,83.5c-0.4,0-0.8-0.3-0.8-0.8c0-0.4,0.4-0.8,0.8-0.8s0.8,0.3,0.8,0.8C210.5,83.1,210.1,83.5,209.7,83.5
			z"/>
		<path class="st0" d="M209.7,87c-0.4,0-0.8-0.3-0.8-0.7s0.4-0.7,0.8-0.7s0.8,0.3,0.8,0.7C210.4,86.7,210.1,87,209.7,87z"/>
		<path class="st0" d="M209.7,90.6c-0.4,0-0.8-0.3-0.8-0.7s0.3-0.7,0.8-0.7s0.8,0.3,0.8,0.7C210.4,90.3,210.1,90.6,209.7,90.6z"/>
		<path class="st0" d="M209.7,94.2c-0.4,0-0.7-0.3-0.7-0.7s0.3-0.7,0.7-0.7s0.7,0.3,0.7,0.7C210.4,93.9,210,94.2,209.7,94.2z"/>
		<path class="st0" d="M209.7,97.7c-0.4,0-0.7-0.3-0.7-0.6s0.3-0.6,0.7-0.6s0.7,0.3,0.7,0.6C210.3,97.4,210,97.7,209.7,97.7z"/>
		<path class="st0" d="M209.7,101.3c-0.4,0-0.6-0.3-0.6-0.6s0.3-0.6,0.6-0.6s0.6,0.3,0.6,0.6S210,101.3,209.7,101.3z"/>
		<path class="st0" d="M209.7,104.8c-0.3,0-0.6-0.3-0.6-0.6s0.3-0.6,0.6-0.6s0.6,0.3,0.6,0.6C210.2,104.6,210,104.8,209.7,104.8z"/>
		<path class="st0" d="M187.8,57.6c-0.6,0-1.1-0.5-1.1-1c0-0.6,0.5-1,1.1-1s1.1,0.5,1.1,1S188.4,57.6,187.8,57.6z"/>
		<path class="st0" d="M187.8,61.1c-0.6,0-1.1-0.4-1.1-1c0-0.5,0.5-1,1.1-1s1.1,0.4,1.1,1C188.9,60.7,188.4,61.1,187.8,61.1z"/>
		<path class="st0" d="M187.8,64.6c-0.6,0-1-0.4-1-0.9s0.4-0.9,1-0.9s1,0.4,1,0.9S188.4,64.6,187.8,64.6z"/>
		<path class="st0" d="M187.8,68.2c-0.5,0-1-0.4-1-0.9s0.4-0.9,1-0.9c0.5,0,1,0.4,1,0.9S188.3,68.2,187.8,68.2z"/>
		<path class="st0" d="M187.8,71.7c-0.5,0-0.9-0.4-0.9-0.9s0.4-0.9,0.9-0.9s0.9,0.4,0.9,0.9C188.7,71.4,188.3,71.7,187.8,71.7z"/>
		<path class="st0" d="M187.8,75.3c-0.5,0-0.9-0.4-0.9-0.8c0-0.4,0.4-0.8,0.9-0.8s0.9,0.4,0.9,0.8C188.7,74.9,188.3,75.3,187.8,75.3
			z"/>
		<path class="st0" d="M187.8,78.8c-0.4,0-0.8-0.3-0.8-0.8c0-0.4,0.4-0.8,0.8-0.8c0.4,0,0.8,0.4,0.8,0.8S188.2,78.8,187.8,78.8z"/>
		<path class="st0" d="M187.8,82.4c-0.4,0-0.8-0.3-0.8-0.7s0.4-0.7,0.8-0.7c0.4,0,0.8,0.3,0.8,0.7C188.6,82.1,188.2,82.4,187.8,82.4
			z"/>
		<path class="st0" d="M187.8,85.9c-0.4,0-0.7-0.3-0.7-0.7s0.3-0.7,0.7-0.7s0.7,0.3,0.7,0.7C188.5,85.6,188.2,85.9,187.8,85.9z"/>
		<path class="st0" d="M187.8,89.5c-0.4,0-0.7-0.3-0.7-0.6s0.3-0.6,0.7-0.6s0.7,0.3,0.7,0.6S188.2,89.5,187.8,89.5z"/>
		<path class="st0" d="M185.1,60.1c-0.6,0-1.1-0.4-1.1-1s0.5-1,1.1-1s1.1,0.4,1.1,1C186.1,59.6,185.7,60.1,185.1,60.1z"/>
		<path class="st0" d="M185.1,63.6c-0.6,0-1-0.4-1-1c0-0.5,0.5-1,1-1s1,0.4,1,1S185.6,63.6,185.1,63.6z"/>
		<path class="st0" d="M185.1,67.2c-0.5,0-1-0.4-1-0.9s0.4-0.9,1-0.9s1,0.4,1,0.9S185.6,67.2,185.1,67.2z"/>
		<path class="st0" d="M185.1,70.7c-0.5,0-0.9-0.4-0.9-0.9s0.4-0.9,0.9-0.9s0.9,0.4,0.9,0.9S185.6,70.7,185.1,70.7z"/>
		<path class="st0" d="M185.1,74.3c-0.5,0-0.9-0.4-0.9-0.8c0-0.5,0.4-0.8,0.9-0.8s0.9,0.4,0.9,0.8C186,73.9,185.6,74.3,185.1,74.3z"
			/>
		<path class="st0" d="M185.1,77.8c-0.5,0-0.9-0.4-0.9-0.8c0-0.4,0.4-0.8,0.9-0.8s0.8,0.4,0.8,0.8C185.9,77.5,185.5,77.8,185.1,77.8
			z"/>
		<path class="st0" d="M185.1,81.4c-0.4,0-0.8-0.3-0.8-0.8s0.4-0.8,0.8-0.8s0.8,0.3,0.8,0.8C185.9,81,185.5,81.4,185.1,81.4z"/>
		<path class="st0" d="M185.1,84.9c-0.4,0-0.8-0.3-0.8-0.7s0.3-0.7,0.8-0.7s0.8,0.3,0.8,0.7C185.8,84.6,185.5,84.9,185.1,84.9z"/>
		<path class="st0" d="M185.1,88.5c-0.4,0-0.7-0.3-0.7-0.7s0.3-0.7,0.7-0.7s0.7,0.3,0.7,0.7S185.5,88.5,185.1,88.5z"/>
		<path class="st0" d="M185.1,92c-0.4,0-0.7-0.3-0.7-0.6s0.3-0.6,0.7-0.6s0.7,0.3,0.7,0.6C185.7,91.7,185.4,92,185.1,92z"/>
		<path class="st0" d="M182.3,62.6c-0.6,0-1-0.4-1-1s0.5-1,1-1c0.6,0,1,0.4,1,1S182.9,62.6,182.3,62.6z"/>
		<path class="st0" d="M182.3,66.2c-0.6,0-1-0.4-1-0.9s0.4-0.9,1-0.9s1,0.4,1,0.9S182.9,66.2,182.3,66.2z"/>
		<path class="st0" d="M182.3,69.7c-0.5,0-0.9-0.4-0.9-0.9s0.4-0.9,0.9-0.9s0.9,0.4,0.9,0.9C183.3,69.3,182.9,69.7,182.3,69.7z"/>
		<path class="st0" d="M182.3,73.3c-0.5,0-0.9-0.4-0.9-0.9s0.4-0.9,0.9-0.9s0.9,0.4,0.9,0.9C183.2,72.9,182.8,73.3,182.3,73.3z"/>
		<path class="st0" d="M182.3,76.8c-0.5,0-0.9-0.4-0.9-0.8c0-0.4,0.4-0.8,0.9-0.8s0.9,0.4,0.9,0.8S182.8,76.8,182.3,76.8z"/>
		<path class="st0" d="M182.3,80.4c-0.5,0-0.8-0.4-0.8-0.8s0.4-0.8,0.8-0.8c0.4,0,0.8,0.4,0.8,0.8C183.2,80,182.8,80.4,182.3,80.4z"
			/>
		<path class="st0" d="M182.3,83.9c-0.4,0-0.8-0.3-0.8-0.7s0.4-0.7,0.8-0.7s0.8,0.3,0.8,0.7S182.8,83.9,182.3,83.9z"/>
		<path class="st0" d="M182.3,87.5c-0.4,0-0.7-0.3-0.7-0.7s0.3-0.7,0.7-0.7s0.7,0.3,0.7,0.7C183.1,87.2,182.7,87.5,182.3,87.5z"/>
		<path class="st0" d="M182.3,91c-0.4,0-0.7-0.3-0.7-0.7s0.3-0.7,0.7-0.7s0.7,0.3,0.7,0.7S182.7,91,182.3,91z"/>
		<path class="st0" d="M182.3,94.6c-0.4,0-0.7-0.3-0.7-0.6s0.3-0.6,0.7-0.6s0.7,0.3,0.7,0.6S182.7,94.6,182.3,94.6z"/>
		<path class="st0" d="M179.6,65.2c-0.6,0-1-0.4-1-0.9s0.4-0.9,1-0.9s1,0.4,1,0.9S180.2,65.2,179.6,65.2z"/>
		<path class="st0" d="M179.6,68.7c-0.5,0-1-0.4-1-0.9s0.4-0.9,1-0.9c0.5,0,1,0.4,1,0.9S180.1,68.7,179.6,68.7z"/>
		<path class="st0" d="M179.6,72.3c-0.5,0-0.9-0.4-0.9-0.9s0.4-0.9,0.9-0.9s0.9,0.4,0.9,0.9S180.1,72.3,179.6,72.3z"/>
		<path class="st0" d="M179.6,75.8c-0.5,0-0.9-0.4-0.9-0.8s0.4-0.8,0.9-0.8s0.9,0.4,0.9,0.8C180.5,75.5,180.1,75.8,179.6,75.8z"/>
		<path class="st0" d="M179.6,79.4c-0.5,0-0.8-0.4-0.8-0.8s0.4-0.8,0.8-0.8c0.5,0,0.9,0.4,0.9,0.8S180.1,79.4,179.6,79.4z"/>
		<path class="st0" d="M179.6,82.9c-0.4,0-0.8-0.3-0.8-0.8s0.4-0.8,0.8-0.8s0.8,0.3,0.8,0.8S180.1,82.9,179.6,82.9z"/>
		<path class="st0" d="M179.6,86.5c-0.4,0-0.8-0.3-0.8-0.7s0.3-0.7,0.8-0.7s0.8,0.3,0.8,0.7S180,86.5,179.6,86.5z"/>
		<path class="st0" d="M179.6,90c-0.4,0-0.7-0.3-0.7-0.7s0.3-0.7,0.7-0.7s0.7,0.3,0.7,0.7S180,90,179.6,90z"/>
		<path class="st0" d="M179.6,93.6c-0.4,0-0.7-0.3-0.7-0.6s0.3-0.6,0.7-0.6s0.7,0.3,0.7,0.6S180,93.6,179.6,93.6z"/>
		<path class="st0" d="M179.6,97.2c-0.4,0-0.6-0.3-0.6-0.6s0.3-0.6,0.6-0.6c0.4,0,0.6,0.3,0.6,0.6C180.2,96.9,180,97.2,179.6,97.2z"
			/>
		<path class="st0" d="M176.9,67.7c-0.5,0-1-0.4-1-0.9s0.4-0.9,1-0.9s1,0.4,1,0.9S177.4,67.7,176.9,67.7z"/>
		<path class="st0" d="M176.9,71.3c-0.5,0-0.9-0.4-0.9-0.9s0.4-0.9,0.9-0.9s0.9,0.4,0.9,0.9C177.8,70.9,177.4,71.3,176.9,71.3z"/>
		<path class="st0" d="M176.9,74.8c-0.5,0-0.9-0.4-0.9-0.9s0.4-0.9,0.9-0.9s0.9,0.4,0.9,0.9C177.8,74.5,177.4,74.8,176.9,74.8z"/>
		<path class="st0" d="M176.9,78.4c-0.5,0-0.9-0.4-0.9-0.8s0.4-0.8,0.9-0.8s0.9,0.4,0.9,0.8C177.7,78,177.4,78.4,176.9,78.4z"/>
		<path class="st0" d="M176.9,81.9c-0.4,0-0.8-0.4-0.8-0.8c0-0.4,0.4-0.8,0.8-0.8c0.4,0,0.8,0.4,0.8,0.8
			C177.7,81.6,177.3,81.9,176.9,81.9z"/>
		<path class="st0" d="M176.9,85.5c-0.4,0-0.8-0.3-0.8-0.7s0.4-0.7,0.8-0.7s0.8,0.3,0.8,0.7C177.7,85.2,177.3,85.5,176.9,85.5z"/>
		<path class="st0" d="M176.9,89.1c-0.4,0-0.8-0.3-0.8-0.7s0.3-0.7,0.8-0.7s0.8,0.3,0.8,0.7S177.3,89.1,176.9,89.1z"/>
		<path class="st0" d="M176.9,92.6c-0.4,0-0.7-0.3-0.7-0.7s0.3-0.7,0.7-0.7s0.7,0.3,0.7,0.7S177.3,92.6,176.9,92.6z"/>
		<path class="st0" d="M176.9,96.2c-0.4,0-0.7-0.3-0.7-0.6s0.3-0.6,0.7-0.6s0.7,0.3,0.7,0.6S177.2,96.2,176.9,96.2z"/>
		<path class="st0" d="M176.9,99.7c-0.4,0-0.6-0.3-0.6-0.6s0.3-0.6,0.6-0.6s0.6,0.3,0.6,0.6C177.5,99.4,177.2,99.7,176.9,99.7z"/>
		<path class="st0" d="M174.2,70.3c-0.5,0-0.9-0.4-0.9-0.9s0.4-0.9,0.9-0.9s0.9,0.4,0.9,0.9C175.1,69.9,174.7,70.3,174.2,70.3z"/>
		<path class="st0" d="M174.2,73.8c-0.5,0-0.9-0.4-0.9-0.9s0.4-0.9,0.9-0.9s0.9,0.4,0.9,0.9S174.7,73.8,174.2,73.8z"/>
		<path class="st0" d="M174.2,77.4c-0.5,0-0.9-0.4-0.9-0.8c0-0.4,0.4-0.8,0.9-0.8s0.9,0.4,0.9,0.8C175,77,174.6,77.4,174.2,77.4z"/>
		<path class="st0" d="M174.2,80.9c-0.5,0-0.8-0.4-0.8-0.8c0-0.4,0.4-0.8,0.8-0.8c0.5,0,0.8,0.4,0.8,0.8
			C175,80.6,174.6,80.9,174.2,80.9z"/>
		<path class="st0" d="M174.2,84.5c-0.4,0-0.8-0.3-0.8-0.8s0.4-0.8,0.8-0.8s0.8,0.3,0.8,0.8S174.6,84.5,174.2,84.5z"/>
		<path class="st0" d="M174.2,88.1c-0.4,0-0.8-0.3-0.8-0.7s0.3-0.7,0.8-0.7c0.4,0,0.8,0.3,0.8,0.7C174.9,87.7,174.6,88.1,174.2,88.1
			z"/>
		<path class="st0" d="M174.2,91.6c-0.4,0-0.7-0.3-0.7-0.7s0.3-0.7,0.7-0.7s0.7,0.3,0.7,0.7C174.9,91.3,174.6,91.6,174.2,91.6z"/>
		<path class="st0" d="M174.2,95.2c-0.4,0-0.7-0.3-0.7-0.6s0.3-0.6,0.7-0.6s0.7,0.3,0.7,0.6C174.8,94.9,174.5,95.2,174.2,95.2z"/>
		<path class="st0" d="M174.2,98.7c-0.4,0-0.7-0.3-0.7-0.6s0.3-0.6,0.7-0.6s0.6,0.3,0.6,0.6S174.5,98.7,174.2,98.7z"/>
		<path class="st0" d="M174.2,102.3c-0.3,0-0.6-0.3-0.6-0.6s0.3-0.6,0.6-0.6s0.6,0.3,0.6,0.6S174.5,102.3,174.2,102.3z"/>
		<path class="st0" d="M171.4,72.8c-0.5,0-0.9-0.4-0.9-0.9s0.4-0.9,0.9-0.9s0.9,0.4,0.9,0.9C172.3,72.4,171.9,72.8,171.4,72.8z"/>
		<path class="st0" d="M171.4,76.4c-0.5,0-0.9-0.4-0.9-0.8s0.4-0.8,0.9-0.8s0.9,0.4,0.9,0.8S171.9,76.4,171.4,76.4z"/>
		<path class="st0" d="M171.4,79.9c-0.5,0-0.9-0.4-0.9-0.8s0.4-0.8,0.9-0.8s0.9,0.4,0.9,0.8C172.3,79.6,171.9,79.9,171.4,79.9z"/>
		<path class="st0" d="M171.4,83.5c-0.4,0-0.8-0.3-0.8-0.8c0-0.4,0.4-0.8,0.8-0.8c0.4,0,0.8,0.3,0.8,0.8
			C172.2,83.1,171.9,83.5,171.4,83.5z"/>
		<path class="st0" d="M171.4,87c-0.4,0-0.8-0.3-0.8-0.7s0.4-0.7,0.8-0.7s0.8,0.3,0.8,0.7C172.2,86.7,171.9,87,171.4,87z"/>
		<path class="st0" d="M171.4,90.6c-0.4,0-0.8-0.3-0.8-0.7s0.3-0.7,0.8-0.7s0.8,0.3,0.8,0.7C172.2,90.3,171.8,90.6,171.4,90.6z"/>
		<path class="st0" d="M171.4,94.2c-0.4,0-0.7-0.3-0.7-0.7s0.3-0.7,0.7-0.7s0.7,0.3,0.7,0.7S171.8,94.2,171.4,94.2z"/>
		<path class="st0" d="M171.4,97.7c-0.4,0-0.7-0.3-0.7-0.6s0.3-0.6,0.7-0.6s0.7,0.3,0.7,0.6S171.8,97.7,171.4,97.7z"/>
		<path class="st0" d="M171.4,101.3c-0.4,0-0.6-0.3-0.6-0.6s0.3-0.6,0.6-0.6s0.6,0.3,0.6,0.6S171.8,101.3,171.4,101.3z"/>
		<path class="st0" d="M171.4,104.8c-0.3,0-0.6-0.3-0.6-0.6s0.3-0.6,0.6-0.6s0.6,0.3,0.6,0.6C172,104.6,171.7,104.8,171.4,104.8z"/>
	</g>
	<g>
		<path class="st18" d="M294,76.9c-2.9,3.6-8,4.2-11.6,1.3s-4.2-8.1-1.3-11.6c2.9-3.6,8-4.2,11.6-1.3
			C296.3,68.1,296.8,73.3,294,76.9z"/>
		<path class="st18" d="M274.7,79.6c-1.1,2.1-3.7,3-5.9,1.9c-2.1-1.1-3-3.7-1.9-5.9c1.1-2.1,3.7-3,5.9-1.9
			C275,74.8,275.8,77.5,274.7,79.6z"/>
		
			<linearGradient id="SVGID_2_" gradientUnits="userSpaceOnUse" x1="314.0834" y1="394.3694" x2="314.0834" y2="390.722" gradientTransform="matrix(0.9863 0.165 -0.165 0.9863 15.5143 -358.9982)">
			<stop  offset="6.310000e-02" style="stop-color:#000000"/>
			<stop  offset="1" style="stop-color:#FFFFFF"/>
		</linearGradient>
		<path class="st19" d="M262.3,79.4c0.3,1-0.2,2-1.2,2.3s-2-0.2-2.3-1.2s0.2-2,1.2-2.3C260.9,77.9,262,78.4,262.3,79.4z"/>
	</g>
	<g>
		<path class="st2" d="M97.1,73.5c1.4,4.7-1.3,9.7-6,11.1s-9.7-1.3-11.1-6s1.3-9.7,6-11.1C90.7,66.1,95.7,68.8,97.1,73.5z"/>
		<path class="st2" d="M100.9,91.6c-2.1-1.1-2.9-3.7-1.7-5.8s3.7-2.9,5.8-1.7c2.1,1.1,2.9,3.7,1.7,5.8C105.5,92,103,92.7,100.9,91.6
			z"/>
		<path class="st2" d="M112.7,98.2c-1.1-0.6-1.5-1.9-0.9-3s1.9-1.5,3-0.9s1.5,1.9,0.9,3C115.1,98.3,113.8,98.7,112.7,98.2z"/>
	</g>
	<g>
		<path class="st20" d="M214.8,20.8c0,0.8-0.6,1.4-1.4,1.4s-1.4-0.6-1.4-1.4s0.6-1.4,1.4-1.4S214.8,20,214.8,20.8z"/>
		<path class="st20" d="M214.8,24.9c0,0.8-0.6,1.4-1.4,1.4s-1.4-0.6-1.4-1.4s0.6-1.4,1.4-1.4S214.8,24.2,214.8,24.9z"/>
		<path class="st20" d="M214.8,29.1c0,0.8-0.6,1.4-1.4,1.4s-1.4-0.6-1.4-1.4s0.6-1.4,1.4-1.4S214.8,28.3,214.8,29.1z"/>
		<path class="st20" d="M214.8,33.2c0,0.8-0.6,1.4-1.4,1.4S212,34,212,33.2s0.6-1.4,1.4-1.4S214.8,32.5,214.8,33.2z"/>
		<path class="st20" d="M214.8,37.4c0,0.8-0.6,1.4-1.4,1.4s-1.4-0.6-1.4-1.4s0.6-1.4,1.4-1.4S214.8,36.6,214.8,37.4z"/>
		<path class="st20" d="M214.8,41.5c0,0.8-0.6,1.4-1.4,1.4s-1.4-0.6-1.4-1.4s0.6-1.4,1.4-1.4S214.8,40.8,214.8,41.5z"/>
		<path class="st20" d="M214.8,45.7c0,0.8-0.6,1.4-1.4,1.4s-1.4-0.6-1.4-1.4s0.6-1.4,1.4-1.4S214.8,44.9,214.8,45.7z"/>
	</g>
	<g>
		<polygon class="st2" points="80.8,155.5 88.2,164.7 73.5,164.7 		"/>
		<path class="st2" d="M82.3,167.4c0,0.8-0.7,1.5-1.5,1.5s-1.5-0.7-1.5-1.5s0.7-1.5,1.5-1.5C81.7,165.9,82.3,166.6,82.3,167.4z"/>
		<path class="st2" d="M82.3,171.9c0,0.8-0.7,1.5-1.5,1.5s-1.5-0.7-1.5-1.5s0.7-1.5,1.5-1.5C81.7,170.4,82.3,171.1,82.3,171.9z"/>
		<path class="st2" d="M82.3,176.5c0,0.8-0.7,1.5-1.5,1.5s-1.5-0.7-1.5-1.5s0.7-1.5,1.5-1.5C81.7,175,82.3,175.6,82.3,176.5z"/>
		<path class="st2" d="M82.3,181c0,0.8-0.7,1.5-1.5,1.5s-1.5-0.7-1.5-1.5s0.7-1.5,1.5-1.5C81.7,179.5,82.3,180.2,82.3,181z"/>
		<path class="st2" d="M82.3,185.6c0,0.8-0.7,1.5-1.5,1.5s-1.5-0.7-1.5-1.5s0.7-1.5,1.5-1.5C81.7,184.1,82.3,184.7,82.3,185.6z"/>
		<path class="st2" d="M82.3,190.1c0,0.8-0.7,1.5-1.5,1.5s-1.5-0.7-1.5-1.5s0.7-1.5,1.5-1.5C81.7,188.6,82.3,189.3,82.3,190.1z"/>
		<path class="st2" d="M82.3,194.6c0,0.8-0.7,1.5-1.5,1.5s-1.5-0.7-1.5-1.5s0.7-1.5,1.5-1.5C81.7,193.1,82.3,193.8,82.3,194.6z"/>
	</g>
	<g>
		<path class="st2" d="M64.1,145.9c0,0.9-0.8,1.7-1.7,1.7s-1.7-0.8-1.7-1.7s0.8-1.7,1.7-1.7S64.1,145,64.1,145.9z"/>
		<path class="st2" d="M64.1,151.1c0,0.9-0.8,1.7-1.7,1.7s-1.7-0.8-1.7-1.7s0.8-1.7,1.7-1.7C63.3,149.4,64.1,150.2,64.1,151.1z"/>
		<path class="st2" d="M64.1,156.3c0,0.9-0.8,1.7-1.7,1.7s-1.7-0.8-1.7-1.7s0.8-1.7,1.7-1.7S64.1,155.4,64.1,156.3z"/>
		<path class="st2" d="M64.1,161.5c0,0.9-0.8,1.7-1.7,1.7s-1.7-0.8-1.7-1.7s0.8-1.7,1.7-1.7S64.1,160.5,64.1,161.5z"/>
		<path class="st2" d="M64.1,166.6c0,0.9-0.8,1.7-1.7,1.7s-1.7-0.8-1.7-1.7s0.8-1.7,1.7-1.7S64.1,165.7,64.1,166.6z"/>
		<path class="st2" d="M64.1,171.8c0,0.9-0.8,1.7-1.7,1.7s-1.7-0.8-1.7-1.7s0.8-1.7,1.7-1.7C63.3,170.1,64.1,170.9,64.1,171.8z"/>
		<path class="st2" d="M64.1,177c0,0.9-0.8,1.7-1.7,1.7s-1.7-0.8-1.7-1.7s0.8-1.7,1.7-1.7S64.1,176.1,64.1,177z"/>
		<path class="st2" d="M64.1,182.2c0,0.9-0.8,1.7-1.7,1.7s-1.7-0.8-1.7-1.7s0.8-1.7,1.7-1.7S64.1,181.2,64.1,182.2z"/>
		<path class="st2" d="M64.1,187.3c0,0.9-0.8,1.7-1.7,1.7s-1.7-0.8-1.7-1.7s0.8-1.7,1.7-1.7C63.3,185.6,64.1,186.4,64.1,187.3z"/>
		<path class="st2" d="M64.1,192.5c0,0.9-0.8,1.7-1.7,1.7s-1.7-0.8-1.7-1.7s0.8-1.7,1.7-1.7S64.1,191.6,64.1,192.5z"/>
		<path class="st2" d="M64.1,197.7c0,0.9-0.8,1.7-1.7,1.7s-1.7-0.8-1.7-1.7s0.8-1.7,1.7-1.7S64.1,196.7,64.1,197.7z"/>
		<path class="st2" d="M64.1,202.9c0,0.9-0.8,1.7-1.7,1.7s-1.7-0.8-1.7-1.7s0.8-1.7,1.7-1.7C63.3,201.2,64.1,201.9,64.1,202.9z"/>
		<path class="st2" d="M64.1,208c0,0.9-0.8,1.7-1.7,1.7s-1.7-0.8-1.7-1.7s0.8-1.7,1.7-1.7S64.1,207.1,64.1,208z"/>
		<path class="st1" d="M64.1,213.2c0,0.9-0.8,1.7-1.7,1.7s-1.7-0.8-1.7-1.7s0.8-1.7,1.7-1.7S64.1,212.3,64.1,213.2z"/>
	</g>
</g>
</svg>
