<?xml version="1.0" encoding="utf-8"?>
<!-- Generator: Adobe Illustrator 23.0.3, SVG Export Plug-In . SVG Version: 6.00 Build 0)  -->
<svg version="1.1" id="Layer_1" xmlns="http://www.w3.org/2000/svg" xmlns:xlink="http://www.w3.org/1999/xlink" x="0px" y="0px"
	 viewBox="0 0 1920 1080" style="enable-background:new 0 0 1920 1080;" xml:space="preserve">
<style type="text/css">
	.st0{clip-path:url(#SVGID_2_);}
	.st1{fill:none;}
	.st2{fill:none;stroke:#F76400;stroke-width:200;}
	.st3{fill:#F76400;}
	.st4{fill:none;stroke:#F67615;stroke-width:20;}
	.st5{fill:none;stroke:#F76400;stroke-width:20;}
	.st6{opacity:0.01;}
	.st7{fill:#F67615;}
	.st8{fill:none;stroke:#707070;}
	.st9{fill:none;stroke:#F76400;stroke-width:10;}
	.st10{fill:#595A5C;}
</style>
<g>
	<defs>
		<rect id="SVGID_1_" x="1105.96" y="-500.85" width="1230.46" height="2146.07"/>
	</defs>
	<clipPath id="SVGID_2_">
		<use xlink:href="#SVGID_1_"  style="overflow:visible;"/>
	</clipPath>
	<g id="Component_3_1" class="st0">
		<g id="Ellipse_1" transform="translate(0 1033.074)">
			<circle class="st1" cx="1662.46" cy="55.65" r="556.5"/>
			<circle class="st2" cx="1662.46" cy="55.65" r="456.5"/>
		</g>
		<path id="Path_2" class="st2" d="M1440.32,687.22c0,0,619.2-209.61,477.54-775.11s358.73-191.93,358.73-191.93"/>
	</g>
</g>
<g id="Group_1" transform="translate(276.576 -88)">
	<g id="Ellipse_4" transform="translate(1243 161)">
		<ellipse class="st3" cx="-240" cy="101.5" rx="43" ry="41.5"/>
		<ellipse class="st4" cx="-240" cy="101.5" rx="33" ry="31.5"/>
	</g>
	<g id="Ellipse_3" transform="translate(956 579)">
		<ellipse class="st1" cx="-240" cy="101.5" rx="43" ry="41.5"/>
		<ellipse class="st5" cx="-240" cy="101.5" rx="33" ry="31.5"/>
	</g>
	<g id="Ellipse_2" transform="translate(396.556 114.345) rotate(43)" class="st6">
		
			<ellipse transform="matrix(2.058571e-06 1 -1 2.058571e-06 1005.8328 454.9389)" class="st7" cx="275.45" cy="730.39" rx="493.5" ry="441.5"/>
		
			<ellipse transform="matrix(2.058571e-06 1 -1 2.058571e-06 1005.8328 454.9389)" class="st8" cx="275.45" cy="730.39" rx="493" ry="441"/>
	</g>
	<g id="Ellipse_5" transform="translate(1028 88)">
		<ellipse class="st1" cx="-256" cy="86" rx="27" ry="26"/>
		<ellipse class="st9" cx="-256" cy="86" rx="22" ry="21"/>
	</g>
	<g id="Ellipse_6" transform="translate(-97 948)">
		<ellipse class="st1" cx="-168" cy="171" rx="115" ry="111"/>
		<ellipse class="st5" cx="-168" cy="171" rx="105" ry="101"/>
	</g>
	<g id="Ellipse_7" transform="translate(111 1059)">
		<ellipse class="st3" cx="-261.5" cy="81" rx="21.5" ry="21"/>
		<ellipse class="st5" cx="-261.5" cy="81" rx="11.5" ry="11"/>
	</g>
	<g id="Ellipse_8" transform="translate(1218.556 397.345) rotate(43)" class="st6">
		
			<ellipse transform="matrix(2.058571e-06 1 -1 2.058571e-06 1005.8328 454.9389)" class="st10" cx="275.45" cy="730.39" rx="493.5" ry="441.5"/>
		
			<ellipse transform="matrix(2.058571e-06 1 -1 2.058571e-06 1005.8328 454.9389)" class="st8" cx="275.45" cy="730.39" rx="493" ry="441"/>
	</g>
</g>
</svg>
